<svg xmlns="http://www.w3.org/2000/svg" viewBox="0 0 512 390" fill="#fff">
    <defs><style>.fa-secondary{opacity:.4}</style></defs>
    <path d="M255.606759,0.168151768 L25.5606759,0.168151768 C11.4439044,0.168151768 0,11.5862419 0,25.6711699 L0,377.248491 C0,384.290955 5.7219522,390 12.7803379,390 L243.07404,390 C234.749846,379.203608 230.176541,365.995838 230.046083,352.375079 C229.79959,321.810364 241.860155,292.426111 263.522581,270.813239 C268.92465,265.512651 274.834532,260.753234 281.167435,256.603276 L281.167435,25.6711699 C281.167435,11.5862419 269.72353,0.168151768 255.606759,0.168151768 Z M115.023041,303.927314 C115.023041,309.209162 110.731577,313.490946 105.437788,313.490946 L73.4869432,313.490946 C68.1931539,313.490946 63.9016897,309.209162 63.9016897,303.927314 L63.9016897,272.048541 C63.9016897,266.766693 68.1931539,262.484909 73.4869432,262.484909 L105.437788,262.484909 C110.731577,262.484909 115.023041,266.766693 115.023041,272.048541 L115.023041,303.927314 Z M115.023041,201.915241 C115.023041,207.197089 110.731577,211.478873 105.437788,211.478873 L73.4869432,211.478873 C68.1931539,211.478873 63.9016897,207.197089 63.9016897,201.915241 L63.9016897,170.036469 C63.9016897,164.754621 68.1931539,160.472837 73.4869432,160.472837 L105.437788,160.472837 C110.731577,160.472837 115.023041,164.754621 115.023041,170.036469 L115.023041,201.915241 Z M217.265745,303.927314 C217.265745,309.209162 212.974281,313.490946 207.680492,313.490946 L175.729647,313.490946 C170.435857,313.490946 166.144393,309.209162 166.144393,303.927314 L166.144393,272.048541 C166.144393,266.766693 170.435857,262.484909 175.729647,262.484909 L207.680492,262.484909 C212.974281,262.484909 217.265745,266.766693 217.265745,272.048541 L217.265745,303.927314 Z M217.265745,201.915241 C217.265745,207.197089 212.974281,211.478873 207.680492,211.478873 L175.729647,211.478873 C170.435857,211.478873 166.144393,207.197089 166.144393,201.915241 L166.144393,170.036469 C166.144393,164.754621 170.435857,160.472837 175.729647,160.472837 L207.680492,160.472837 C212.974281,160.472837 217.265745,164.754621 217.265745,170.036469 L217.265745,201.915241 Z M115.096072,110.833034 C115.096072,116.114882 110.804608,120.396666 105.510819,120.396666 L73.5599737,120.396666 C68.2661844,120.396666 63.9747202,116.114882 63.9747202,110.833034 L63.9747202,78.9542613 C63.9747202,73.6724133 68.2661844,69.3906295 73.5599737,69.3906295 L105.510819,69.3906295 C110.804608,69.3906295 115.096072,73.6724133 115.096072,78.9542613 L115.096072,110.833034 Z M217.338776,110.833034 C217.338776,116.114882 213.047311,120.396666 207.753522,120.396666 L175.802677,120.396666 C170.508888,120.396666 166.217424,116.114882 166.217424,110.833034 L166.217424,78.9542613 C166.217424,73.6724133 170.508888,69.3906295 175.802677,69.3906295 L207.753522,69.3906295 C213.047311,69.3906295 217.338776,73.6724133 217.338776,78.9542613 L217.338776,110.833034 Z"/>
    <path class="fa-secondary" d="M422.24639,262.48477 L421.751152,262.48477 C419.837336,262.47743 417.934269,262.770583 416.111828,263.353606 C394.928549,270.693497 371.88374,270.693497 350.700461,263.353606 C348.880599,262.77128 346.980273,262.478134 345.069124,262.48477 C295.660424,262.48477 255.606759,302.448225 255.606759,351.745473 L255.606759,352.239594 C255.718587,373.168008 272.964055,390 293.947773,390 L472.872504,390 C493.856221,390 511.10169,373.168008 511.214898,352.239594 C511.345227,328.566111 502.045839,305.810069 485.361187,288.977721 C468.676536,272.145374 445.973398,262.615596 422.24639,262.48477 L422.24639,262.48477 Z M383.410138,236.981891 C425.760453,236.981891 460.092166,202.727621 460.092166,160.472837 C460.092166,118.218053 425.760453,83.9637827 383.410138,83.9637827 C341.059824,83.9637827 306.728111,118.218053 306.728111,160.472837 C306.728111,202.727621 341.059824,236.981891 383.410138,236.981891 Z"/>
</svg>


