<?xml version="1.0" encoding="utf-8"?>

<svg version="1.1" xmlns="http://www.w3.org/2000/svg" xmlns:xlink="http://www.w3.org/1999/xlink" x="0px" y="0px"
	 viewBox="0 0 586.8 419.5" style="enable-background:new 0 0 586.8 419.5;" xml:space="preserve">
<style type="text/css">
	.st0{fill:#C4C8D4;}
	.st1{fill:none;stroke:#504A56;stroke-width:1.5;stroke-linecap:round;stroke-linejoin:round;stroke-miterlimit:10;stroke-dasharray:2,8;}
	.st2{fill:#39363D;}
	.st3{fill:#FFFFFF;}
	.st4{fill:#504A56;}
	.st5{fill:#AEB4C1;}
	.st6{fill:#DFE4ED;}
	.st7{fill:none;stroke:#504A56;stroke-width:1.5;stroke-linecap:round;stroke-linejoin:round;stroke-miterlimit:10;}
	.st8{fill:#E0B5AD;}
	.st9{fill:#7E5366;}
	.st10{fill:#FFD5D9;}
	.st11{fill:#F9C2CB;}
</style>
<g id="Layer_1">
	<g>
		<path class="st0" d="M3.9,150.9c0,0,21.4-14.5,53.2-18.3c0,0,7.2-2.3,8.8,3.3v34.6c0,0,0.5,7-5.2,7.5c0,0-27.7,5.5-52.5,19
			c0,0-7.2,4-8.2-3v-27.6C0.1,166.4-0.8,153.2,3.9,150.9z"/>
		<path class="st1" d="M253.1,127.7c43.6-7.1,90.2-10.9,138.7-10.9c1,0,9.6,0.2,10.6,0.2"/>
		<path class="st1" d="M74.5,182.2c32.3-16.2,69.8-29.9,111.4-40.4"/>
		<path class="st1" d="M54.8,215.6c23.4-13.4,50.2-25.4,79.8-35.7"/>
		<g>
			<path class="st2" d="M586.6,399.2c0,9.7-8,17.6-17.9,17.6H186.5c-9.9,0-17.9-7.9-17.9-17.6v-173c0-9.7,8-17.6,17.9-17.6h382.2
				c9.9,0,17.9,7.9,17.9,17.6V399.2z"/>
			<path class="st3" d="M579.8,399.2c0,6-5,10.9-11.1,10.9H211.8c-6.1,0-11.1-4.9-11.1-10.9v-173c0-6,5-10.9,11.1-10.9h356.9
				c6.1,0,11.1,4.9,11.1,10.9V399.2z"/>
			<path class="st0" d="M185.5,291.3c1.3,0,2.4,1.1,2.4,2.4v30.6c0,1.3-1.1,2.4-2.4,2.4l0,0c-1.3,0-2.4-1.1-2.4-2.4v-30.6
				C183.1,292.4,184.2,291.3,185.5,291.3L185.5,291.3z"/>
		</g>
		<g>
			<g>
				<path class="st4" d="M225.6,265.9c0-7.3,6-13.2,13.3-13.2c7.4,0,13.3,5.9,13.3,13.2c0,7.3-6,13.2-13.3,13.2
					C231.5,279.1,225.6,273.2,225.6,265.9z"/>
				<path class="st0" d="M240.7,265.2c1.1-0.6,1.9-1.8,1.9-3.2c0-2-1.7-3.7-3.7-3.7c-2.1,0-3.7,1.7-3.7,3.7c0,1.4,0.8,2.6,1.9,3.2
					c-2.5,0.8-4.3,3.1-4.3,5.8v1.2h12.3V271C245.1,268.3,243.2,266,240.7,265.2z"/>
			</g>
			<g>
				<path class="st4" d="M225.6,300.6c0-7.3,6-13.2,13.3-13.2c7.4,0,13.3,5.9,13.3,13.2c0,7.3-6,13.2-13.3,13.2
					C231.5,313.8,225.6,307.9,225.6,300.6z"/>
				<path class="st0" d="M240.7,299.9c1.1-0.6,1.9-1.8,1.9-3.2c0-2-1.7-3.7-3.7-3.7c-2.1,0-3.7,1.7-3.7,3.7c0,1.4,0.8,2.6,1.9,3.2
					c-2.5,0.8-4.3,3.1-4.3,5.8v1.2h12.3v-1.2C245.1,303,243.2,300.7,240.7,299.9z"/>
			</g>
			<g>
				<g>
					<rect x="261.6" y="271.8" class="st0" width="29.2" height="4.4"/>
					<rect x="261.6" y="263.7" class="st0" width="64" height="4.4"/>
					<rect x="261.6" y="255.6" class="st0" width="64" height="4.4"/>
				</g>
				<g>
					<rect x="261.6" y="302.4" class="st0" width="33.9" height="4.4"/>
					<rect x="261.6" y="294.3" class="st0" width="64" height="4.4"/>
				</g>
				<g>
					<rect x="261.6" y="371.8" class="st0" width="33.9" height="4.4"/>
					<rect x="261.6" y="363.7" class="st0" width="64" height="4.4"/>
				</g>
				<g>
					<rect x="261.6" y="341.2" class="st0" width="29.2" height="4.4"/>
					<rect x="261.6" y="333.1" class="st0" width="64" height="4.4"/>
					<rect x="261.6" y="324.9" class="st0" width="64" height="4.4"/>
				</g>
			</g>
			<g>
				<path class="st4" d="M225.6,335.3c0-7.3,6-13.2,13.3-13.2c7.4,0,13.3,5.9,13.3,13.2c0,7.3-6,13.2-13.3,13.2
					C231.5,348.4,225.6,342.6,225.6,335.3z"/>
				<path class="st0" d="M240.7,334.6c1.1-0.6,1.9-1.8,1.9-3.2c0-2-1.7-3.7-3.7-3.7c-2.1,0-3.7,1.7-3.7,3.7c0,1.4,0.8,2.6,1.9,3.2
					c-2.5,0.8-4.3,3.1-4.3,5.8v1.2h12.3v-1.2C245.1,337.7,243.2,335.4,240.7,334.6z"/>
			</g>
			<g>
				<path class="st4" d="M225.6,370.2c0-7.3,6-13.2,13.3-13.2c7.4,0,13.3,5.9,13.3,13.2c0,7.3-6,13.2-13.3,13.2
					C231.5,383.3,225.6,377.4,225.6,370.2z"/>
				<path class="st0" d="M240.7,369.5c1.1-0.6,1.9-1.8,1.9-3.2c0-2-1.7-3.7-3.7-3.7c-2.1,0-3.7,1.7-3.7,3.7c0,1.4,0.8,2.6,1.9,3.2
					c-2.5,0.8-4.3,3.1-4.3,5.8v1.2h12.3v-1.2C245.1,372.5,243.2,370.2,240.7,369.5z"/>
			</g>
		</g>
		<g>
			<g>
				<path class="st5" d="M317.1,193.8c-0.5-6.7-6.4-11.7-13.1-11.2l-49.5,3.6l-30.2,2.7c-6.7,0.5-11.7,6.4-11.2,13.1
					c0.5,6.7,6.4,11.7,13.1,11.2l30.2-2.7l26.4-2C289.5,207.9,317.7,200.5,317.1,193.8z"/>
				<path class="st5" d="M287.6,176l35.6-1.2l0.7,20.8c0,0.2,0.1,0.5,0.1,0.7c0.5,6.7-4.5,12.6-11.2,13.1l-26.4,2l-30.2,2.7
					c-6.7,0.5-12.6-4.5-13.1-11.2c-0.5-6.7,4.5-12.6,11.2-13.1l26.8-2.4"/>
				<g>
					<path class="st6" d="M247.7,288.3c0,0-0.7-3.9-0.7-3.9c-0.6-3.1,0.7-5.9,2.8-6.3l8.9-1.7l-0.3-1.5l10.6-2.5l1.9,11.5
						L247.7,288.3z"/>
					<path class="st5" d="M243.1,204.6c0,0,6.1,37.9,11.8,72.6l17-1.9l0-68.2"/>
					<path class="st7" d="M268.3,186.7l-11.5,1c-7.9,0.6-13.8,7.5-13.2,15.4c0,0.3,1.9,13.3,3.7,26.2"/>
				</g>
				<g>
					<g>
						<path class="st6" d="M184.7,276.8c0,0,0.8-3.8,0.8-3.9c0.7-3.1,2.9-5.2,5-4.7l8.9,1.9l0.3-1.5l10.8,1.8l-2.7,11.3L184.7,276.8
							z"/>
						<path class="st5" d="M213.6,196.3c0,0-9.5,38.9-17.6,73.2l16.5,4.8l27.8-67.9"/>
					</g>
				</g>
				<path class="st7" d="M310.1,188.7c0,0,4.5,5.7,11,7"/>
			</g>
			<g>
				<path class="st8" d="M273.6,95.4c-6.5-1.5-12.9,2.5-14.5,8.9l-6,25.4l-6.5,29.1c-1.5,6.5,2.4,12.9,8.9,14.5
					c6.5,1.5,12.9-2.4,14.5-8.9l6.5-29.1l6.1-25.4C284,103.5,280,97,273.6,95.4z"/>
				<polyline class="st8" points="269.3,118.5 265.9,185.6 326.4,188.6 333,98.8 269.4,95.3 				"/>
				<path class="st9" d="M295.1,54.3c4.1-0.5,7.1-0.4,11,0.2c2.1,0.3,6.8,1.6,7.4,3.3c7.7,4,2.8,17.6,2.8,17.6l-13.6-0.6l0,0.1
					l-2.2-0.2l-2.2-0.1l0-0.1l-11.4-0.8c0,0,0.3,0.2,0-0.1c-1.2-1.6-1.6-4.2-1.7-6.1c-0.2-3,0.5-5.9,2-8.5
					C288.9,56.1,291.8,54.7,295.1,54.3z"/>
				<path class="st10" d="M291.9,96c-0.2,3.9,3.6,7.3,7.3,7.5l0,0c3.7,0.2,7.8-2.8,8-6.7l-0.4-9.7c0.2-3.9-2.6-7.2-6.3-7.4l0,0
					c-3.7-0.2-6.9,2.8-7.1,6.7L291.9,96z"/>
				<path class="st4" d="M292.8,89.1l12.5-2.7c0,0-3,8-13.1,7.2L292.8,89.1z"/>
				<path class="st10" d="M295.4,63.7c3.7,0.2,8.9-1.2,12.8-1c0.8,0,4.3,10.6,5,10.4c0.2,1.1,0.3,2.3,0.2,3.5
					c-0.4,8.3-7,14.7-14.8,14.3c-7.7-0.4-13.6-7.5-13.2-15.8c0.1-2.3,0.7-4.5,1.7-6.5C292.5,62.3,292.9,63.6,295.4,63.7z"/>
				<path class="st11" d="M309.8,83.1c-0.2,1.5-1.6,2.5-3,2.3c-1.5-0.2-2.5-1.6-2.3-3c0.2-1.5,1.6-2.5,3-2.3
					C308.9,80.3,310,81.6,309.8,83.1z"/>
				<path class="st11" d="M292.8,81.5c-0.2,1.5-1.6,2.5-3,2.3c-1.5-0.2-2.5-1.6-2.3-3c0.2-1.5,1.6-2.5,3-2.3
					C292,78.6,293,80,292.8,81.5z"/>
				<path class="st9" d="M306.9,65.1c-2.4,3.4-10,6-21,6.2c-1.5-10.9,9.7-14.5,15.2-13.8c11.6,1.4,14,9.6,13.2,15.4
					C313.6,72.9,310.4,70.4,306.9,65.1z"/>
				<path class="st4" d="M301.8,76.4c0,0.5,0.4,1,0.9,1c0.5,0,1-0.4,1-0.9c0-0.5-0.4-1-0.9-1C302.3,75.5,301.8,75.9,301.8,76.4z"/>
				<path class="st4" d="M292.6,76c0,0.5,0.4,1,0.9,1c0.5,0,1-0.4,1-0.9c0-0.5-0.4-1-0.9-1C293.1,75,292.7,75.4,292.6,76z"/>
				<polyline class="st7" points="297.6,75.8 296.5,79.5 299.4,79.6 				"/>
				<path class="st10" d="M310.9,82.1c0.6,0.3,1.2,0.5,1.9,0.5c2.5,0.1,4.6-1.8,4.7-4.3c0.1-2.3-1.5-4.3-3.7-4.7l-1-0.1"/>
				<path class="st7" d="M313.4,76.6c0,0,1.6,0.3,1,2.8"/>
				<path class="st7" d="M302.1,73c0,0,1.4-0.9,2.4,0.1"/>
				<path class="st7" d="M292.1,72.5c0,0,1.4-0.9,2.4,0.1"/>
				<g>
					<g>
						<path class="st8" d="M263.1,144.3c-6.2-12.6-4.2-12.8-11.3-28l-16.4,2.5c2.9,13.2,6,30.6,9.4,43.7c1.6,6.1,6.7,12.1,15.7,10.8
							c0,0,2.3-0.4,4.6-2.2"/>
					</g>
				</g>
				<line class="st7" x1="266.4" y1="118.9" x2="266.2" y2="172"/>
				<line class="st7" x1="256.3" y1="127.9" x2="263.8" y2="147"/>
				<g>
					<g>
						<g>
							<path class="st4" d="M278,118.1l2.9,13.8c0,0,1.3,5.6-4.2,5.2l-31.5-5.5c0,0-3.3-0.3-4-3.5l-6.7-11.3c0,0-1-5.8,7.4-5
								l31.9,2.6C273.8,114.3,276.9,114.4,278,118.1z"/>
							<path class="st2" d="M275.2,121.2l3,12.8c0,0,1.5,3.7-4,3.3l-31.9-2.6c0,0-3.3-0.3-4-3.5l-3.4-11.5c0,0-2.3-4.9,5.7-4.5
								l30.3,2.3C271,117.4,274.1,117.6,275.2,121.2z"/>
						</g>
						<g>
							<path class="st10" d="M233,123.3c0.2,1.3,1.5,2.2,2.7,1.9l4.2-0.9c1.3-0.2,2.2-1.5,1.9-2.7l0,0c-0.2-1.3-1.5-2.2-2.7-1.9
								l-4.2,0.9C233.6,120.8,232.8,122,233,123.3L233,123.3z"/>
							<path class="st10" d="M233.5,128.3c0.2,1.3,1.5,2.2,2.7,1.9l4.2-0.9c1.3-0.2,2.2-1.5,1.9-2.7l0,0c-0.2-1.3-1.5-2.2-2.7-1.9
								l-4.2,0.9C234.2,125.8,233.3,127,233.5,128.3L233.5,128.3z"/>
							<path class="st10" d="M236,132.4c0.2,1.2,1.4,2,2.6,1.8l3.7-0.8c1.2-0.2,2-1.4,1.8-2.6l0,0c-0.2-1.2-1.4-2-2.6-1.8l-3.7,0.8
								C236.6,130.1,235.8,131.2,236,132.4L236,132.4z"/>
							<path class="st10" d="M237.7,136.6c0.2,1.2,1.4,2,2.6,1.8l3.7-0.8c1.2-0.2,2-1.4,1.8-2.6l0,0c-0.2-1.2-1.4-2-2.6-1.8
								l-3.7,0.8C238.3,134.2,237.5,135.4,237.7,136.6L237.7,136.6z"/>
						</g>
					</g>
					<line class="st7" x1="234.7" y1="125.3" x2="240.7" y2="124.1"/>
					<line class="st7" x1="235.8" y1="130.1" x2="241.7" y2="128.8"/>
					<line class="st7" x1="237.5" y1="134.6" x2="243.8" y2="133.3"/>
				</g>
				<path class="st7" d="M295.6,82.9c-0.1,1.6,1.1,3,2.6,3.1c1.5,0.1,2.8-1.2,2.9-2.9L295.6,82.9z"/>
				<path class="st8" d="M340.4,173.7l-13.7-33.3l-7.5-26.2c-1.5-6.6,2.6-13.3,9.3-14.8c6.6-1.5,13.3,2.6,14.8,9.3l16.9,55"/>
				<g>
					<g>
						<g>
							<g>
								<path class="st10" d="M360.5,196.2l9.9,2c3.9,1.7,5.6,6.2,3.9,10.1l0,0c-1.7,3.9-6.3,5.9-10.1,4.2l-1.7-0.3
									c0,0-8.8-3.2-8.7-12.3"/>
								<g>
									<path class="st10" d="M369.3,198.2l9.1,1.7c1,0.2,1.7,1.2,1.5,2.2l0,0c-0.2,1-1.2,1.7-2.2,1.5l-4.6-1"/>
									<path class="st10" d="M371.3,201.5l9.1,1.5c1.1,0.2,1.8,1.3,1.6,2.4l0,0c-0.2,1.1-1.3,1.8-2.4,1.6l-6-1.2"/>
									<path class="st10" d="M372,205.3l10.3,1.8c1.1,0.2,1.8,1.3,1.6,2.4l0,0c-0.2,1.1-1.3,1.8-2.4,1.6l-8.5-1.6"/>
									<path class="st10" d="M372.7,209.1l8.3,1.6c1.1,0.2,1.8,1.3,1.6,2.4l0,0c-0.2,1.1-1.3,1.8-2.4,1.6l-12.1-2.4"/>
								</g>
								<path class="st10" d="M365.9,209.2l5.1,3.1c1,0.6,1.3,1.8,0.7,2.8l0,0c-0.6,1-1.8,1.3-2.8,0.7l-8-4.3"/>
							</g>
						</g>
						<line class="st7" x1="373.8" y1="201.6" x2="379" y2="202.4"/>
						<line class="st7" x1="373.4" y1="205.5" x2="380.7" y2="206.6"/>
						<line class="st7" x1="373.1" y1="209.4" x2="381.6" y2="211.1"/>
						<line class="st7" x1="365.4" y1="208.4" x2="371" y2="212.3"/>
					</g>
					<g>
						<g>
							<path class="st8" d="M340.4,159.3c0,0,10.4-11.6,19,2.3c0,0,4.6,15.7,9.8,35.9l-16.9,5.6l-8.7-21.3
								C339.6,173.6,334.7,163.4,340.4,159.3z"/>
						</g>
					</g>
				</g>
			</g>
			<line class="st7" x1="332.2" y1="122.9" x2="328.7" y2="160.8"/>
		</g>
		<g>
			<g>
				<path class="st0" d="M122.7,118.8c12.7,12.4,26.3,14.4,26.3,14.4c-5.8-5.4-7.2-11.3-7.5-15"/>
				<path class="st0" d="M108.7,75.5c0,0,49.6-24.7,113.7-31.6c0,0,9.9-3.1,12,4.5v35.8c0,0,0.7,9.7-7,10.4
					c0,0-78.9,16.7-112.7,35.4c0,0-9.9,5.6-11.3-4.2V86.2C103.4,86.2,102.4,77.9,108.7,75.5z"/>
			</g>
			<g>
				<path class="st8" d="M85.5,50.6c12.4,12.1,25.7,14.1,25.7,14.1c-5.6-5.3-7.1-11.1-7.4-14.7"/>
				<path class="st8" d="M70.3,23.7c0,0,34.9-18.4,80-23.3c0,0,6.9-2.2,8.4,3.2v25.1c0,0,0.5,6.8-5,7.3c0,0-55.5,12.8-79.2,25.9
					c0,0-6.9,3.9-7.9-2.9V31.3C66.6,31.3,65.9,25.4,70.3,23.7z"/>
			</g>
			<path class="st7" d="M125.4,84.2c0,0,42.8-18.8,88.2-25.5"/>
			<g>
				<path class="st7" d="M125.4,95.1c0,0,42.8-18.8,88.2-25.5"/>
				<path class="st7" d="M125.4,107.1c0,0,18.1-8.5,43.3-15.7"/>
			</g>
			<g>
				<path class="st7" d="M83.9,32.2c0,0,24-10.5,53.1-17.1"/>
				<path class="st7" d="M83.9,41.8c0,0,14.4-6.8,34.5-12.5"/>
			</g>
		</g>
	</g>
</g>
</svg>
