<svg xmlns="http://www.w3.org/2000/svg" viewBox="0 0 214 164" >
    <g>
        <path d="M124.426086,163.654871 C153.883843,148.317999 174,117.508189 174,82 C174,46.4918106 153.883843,15.6820013 124.426086,0.345128697 C126.920098,0.116724372 129.446418,-2.7952624e-14 132,-2.84217094e-14 C154.713284,-3.25940721e-14 213.642032,-4.34191074e-14 214,-4.34848651e-14 C214,-4.34848651e-14 214,59.4259349 214,82 C214,127.287349 177.287349,164 132,164 C129.446418,164 126.920098,163.883276 124.426086,163.654871 Z" id="Combined-Shape" fill="#1BA2EB"></path>

        <path d="M82,164 C127.287349,164 164,127.287349 164,82 C164,36.7126505 127.287349,0 82,0 C36.7126505,0 0,36.7126505 0,82 C0,104.713284 0,163.642032 0,164 C0,164 59.4259349,164 82,164 Z" id="Oval" fill="#2D3852"></path>
        <path d="M77.4013873,67.4363636 C79.9183202,68.9083974 83.465015,70.378299 88.0414717,71.8482006 L93.6491093,73.7236364 C97.0047045,74.9010075 100.037228,76.3709091 102.744787,78.1354733 C105.451874,79.9008903 107.759732,81.9793065 109.668363,84.3681631 C111.574156,86.758299 112.98659,89.4422446 113.902354,92.42 C114.816227,95.3981818 115.160584,98.6522634 114.93117,102.182245 C114.397132,110.05157 111.097353,116.154199 105.034198,120.49269 C98.9691514,124.830754 90.7111896,127 80.2598398,127 C75.1493449,127 70.2280575,126.465684 65.5007079,125.400464 C60.7700471,124.336097 56.8406801,122.626115 53.714972,120.271799 C52.6440575,119.389517 51.7301852,118.379306 50.967679,117.238608 C50.2042266,116.099616 49.6517407,114.904761 49.3092751,113.653191 C48.9658635,112.40418 48.9086282,111.099733 49.1366233,109.738144 C49.3665104,108.378261 49.8986565,107.073814 50.7382648,105.822245 C51.5778732,104.572807 52.758528,103.6159 54.2859057,102.954082 C55.8118642,102.292263 57.3373498,101.925534 58.8647274,101.851762 C60.8462031,101.778843 62.4279779,102.071373 63.6119439,102.733191 C64.7930718,103.395436 65.9183834,104.020581 66.9878789,104.608627 C68.2834773,105.418843 69.962694,106.098144 72.0222177,106.649517 C74.0817415,107.20089 77.0570296,107.47679 80.9476091,107.47679 C84.1508922,107.47679 86.6295106,106.924564 88.3848833,105.822245 C90.1383639,104.718646 91.0536552,102.954082 91.1317033,100.527699 C91.1317033,99.4987254 90.7111896,98.5055717 89.8730004,97.5495173 C89.031973,96.5943158 87.8305053,95.7124602 86.2676512,94.9022446 C84.7033781,94.0937348 82.8921892,93.3027085 80.8326655,92.5300187 C78.7736148,91.7581818 76.5603599,91.0051078 74.1966851,90.2695173 C73.2804477,89.976134 72.3079211,89.6456514 71.2786322,89.2767901 C70.2498164,88.9096345 69.3903413,88.578299 68.703991,88.2836364 C64.3555294,86.5190722 60.8462031,84.3314902 58.1769581,81.7208903 C55.5058211,79.1115698 53.5040056,76.2796532 52.1691466,73.2276992 C50.8342877,70.1770244 50.1484104,67.0329616 50.1096229,63.7963636 C50.0708353,60.5618978 50.5490573,57.5090909 51.5405047,54.6413543 C53.5224534,48.6849906 57.2039585,44.0897891 62.583128,40.8531912 C67.9589864,37.6187254 74.5765191,36 82.4361991,36 C85.4095952,36 88.0230239,36.1296345 90.2731742,36.3859185 C92.5223785,36.644761 94.5071653,36.9752437 96.2237505,37.3786457 C97.9384435,37.7837535 99.4270336,38.2613543 100.685737,38.8127273 C101.94444,39.3645267 103.106647,39.8988425 104.176142,40.4126898 C106.845387,41.8100984 108.923359,43.7593065 110.411476,46.2586082 C111.898647,48.7591893 112.222665,51.3326898 111.384948,53.9799625 C110.621496,56.2600797 109.342926,57.8779522 107.551131,58.8331537 C105.757444,59.7892081 103.755628,60.2672352 101.543793,60.2672352 C100.702765,60.2672352 99.7496324,60.1205436 98.6834481,59.825881 C97.6144257,59.5324977 96.8131319,59.202015 96.2795667,58.8331537 C94.9078122,57.9504452 93.1505475,57.1786082 91.0167598,56.5163636 C88.8796609,55.8545455 86.0954724,55.5236364 82.6637212,55.5236364 C79.9183202,55.5236364 77.7613546,56.0579522 76.1985005,57.1231724 C74.6342274,58.189672 73.8130668,59.8634067 73.7388029,62.1418182 C73.6612278,64.2018978 74.8839813,65.966462 77.4013873,67.4363636 Z" id="Fill-1" fill="#FFFFFF"></path>
    </g>
</svg>
