<svg xmlns="http://www.w3.org/2000/svg" viewBox="0 0 214 164" >
    <g>
        <path d="M89.5739142,0.345128697 C60.1161569,15.6820013 40,46.4918106 40,82 C40,117.508189 60.1161569,148.317999 89.5739142,163.654871 C87.0799015,163.883276 84.553582,164 82,164 C59.4259349,164 0,164 0,164 C0,163.642032 0,104.713284 0,82 C0,36.7126505 36.7126505,0 82,0 C84.553582,0 87.0799015,0.116724372 89.5739142,0.345128697 Z" id="Combined-Shape" fill="#2D3852"></path>
        <path d="M132,164 C177.287349,164 214,127.287349 214,82 C214,36.7126505 177.287349,0 132,0 C86.7126505,0 50,36.7126505 50,82 C50,104.713284 50,163.642032 50,164 C50,164 109.425935,164 132,164 Z" id="Oval-Copy" fill="#1BA2EB" transform="translate(132.000000, 82.000000) scale(-1, 1) rotate(-270.000000) translate(-132.000000, -82.000000) "></path>
        <path d="M129.670664,69.009828 C131.924116,70.3214114 135.099531,71.631095 139.19691,72.9407786 L144.217522,74.6117936 C147.221843,75.6608323 149.936912,76.970516 152.361035,78.5427442 C154.784735,80.1157324 156.851,81.967603 158.559829,84.0960764 C160.266117,86.2256896 161.530693,88.6170876 162.350593,91.2702703 C163.168798,93.9238329 163.477107,96.8232225 163.271709,99.9684389 C162.793575,106.980015 159.839228,112.417462 154.410784,116.283062 C148.980645,120.148281 141.587153,122.081081 132.229884,122.081081 C127.654372,122.081081 123.248261,121.605005 119.015785,120.655893 C114.780345,119.707541 111.262317,118.183946 108.463818,116.086248 C107.50501,115.300134 106.686805,114.400035 106.00412,113.383672 C105.320589,112.368829 104.825939,111.304212 104.519323,110.189063 C104.211861,109.076192 104.160618,107.913929 104.364745,106.700752 C104.570567,105.489095 105.047007,104.326832 105.798722,103.211682 C106.550437,102.098432 107.607498,101.245827 108.974984,100.656146 C110.341201,100.066466 111.706994,99.7397097 113.07448,99.6739786 C114.848529,99.6090073 116.264718,99.8696522 117.324743,100.459333 C118.382227,101.049393 119.389737,101.606398 120.347274,102.130348 C121.507246,102.852251 123.010676,103.457509 124.854603,103.948783 C126.698529,104.440057 129.362354,104.685884 132.845655,104.685884 C135.713609,104.685884 137.932757,104.19385 139.504372,103.211682 C141.074293,102.228375 141.893768,100.656146 141.963646,98.4942374 C141.963646,97.5774209 141.587153,96.6925201 140.836708,95.8406748 C140.083722,94.9895894 139.008028,94.2038552 137.608779,93.4819524 C136.208259,92.7615694 134.586671,92.0567644 132.742745,91.3682971 C130.899242,90.6805897 128.917678,90.0096 126.80144,89.3541883 C125.981117,89.0927835 125.110398,88.7983232 124.188858,88.4696674 C123.267742,88.1425315 122.498239,87.8473112 121.883739,87.5847666 C117.990488,86.0125383 114.848529,84.0634008 112.458709,81.737354 C110.067195,79.4124471 108.274936,76.8892069 107.079814,74.1699131 C105.884693,71.4517592 105.270615,68.6503964 105.235888,65.7665848 C105.201161,62.8846729 105.629321,60.1646192 106.516981,57.6094633 C108.291453,52.302338 111.587566,48.2080093 116.403627,45.3241977 C121.216723,42.4422858 127.141512,41 134.178415,41 C136.840547,41 139.180393,41.1155044 141.194991,41.3438537 C143.208741,41.5744826 144.985754,41.868943 146.522642,42.2283746 C148.057835,42.589326 149.390595,43.0148687 150.517533,43.5061425 C151.644471,43.9977963 152.685014,44.4738722 153.642552,44.9317105 C156.032371,46.1768029 157.892814,47.913549 159.22515,50.1404291 C160.55664,52.368449 160.846738,54.6614403 160.096717,57.0201626 C159.413185,59.051749 158.26846,60.4932749 156.664236,61.3443603 C155.058318,62.1962056 153.266059,62.6221282 151.285765,62.6221282 C150.532779,62.6221282 149.679423,62.4914258 148.72485,62.2288812 C147.767736,61.9674764 147.050325,61.673016 146.572615,61.3443603 C145.34446,60.5578662 143.771151,59.8701588 141.860735,59.2800983 C139.947355,58.6904177 137.454624,58.3955774 134.38212,58.3955774 C131.924116,58.3955774 129.992948,58.8716533 128.593699,59.8207655 C127.193179,60.7710175 126.45798,62.2623167 126.39149,64.2923833 C126.322036,66.1279161 127.416788,67.7001444 129.670664,69.009828 Z" id="Fill-1" fill="#FFFFFF"></path>
    </g>
</svg>
