<?xml version="1.0" encoding="utf-8"?><svg width="7008" height="6496" viewBox="0 0 7008 6496" xmlns="http://www.w3.org/2000/svg" xmlns:xlink="http://www.w3.org/1999/xlink"><view id="angle-double-down" viewBox="0 3284 360 552"/><svg viewBox="-20 -20 360 552" width="360" height="552" y="3284" xmlns="http://www.w3.org/2000/svg"><path d="M151.5 427.8L3.5 281c-4.7-4.7-4.7-12.3 0-17l19.8-19.8c4.7-4.7 12.3-4.7 17 0L160 362.7l119.7-118.5c4.7-4.7 12.3-4.7 17 0l19.8 19.8c4.7 4.7 4.7 12.3 0 17l-148 146.8c-4.7 4.7-12.3 4.7-17 0zm17-160l148-146.8c4.7-4.7 4.7-12.3 0-17l-19.8-19.8c-4.7-4.7-12.3-4.7-17 0L160 202.7 40.3 84.2c-4.7-4.7-12.3-4.7-17 0L3.5 104c-4.7 4.7-4.7 12.3 0 17l148 146.8c4.7 4.7 12.3 4.7 17 0z"/></svg><view id="angle-double-duotone-left" viewBox="360 3284 488 552"/><svg viewBox="-20 -20 488 552" fill="#666" width="488" height="552" x="360" y="3284" xmlns="http://www.w3.org/2000/svg"><defs><style>.abfa-secondary{opacity:.4}</style></defs><path d="M224 239l135.61-136a23.78 23.78 0 0133.8 0L416 125.64a23.94 23.94 0 010 33.89l-96.16 96.37L416 352.27a23.94 23.94 0 010 33.89L393.53 409a23.78 23.78 0 01-33.8 0L224.12 273a23.94 23.94 0 01-.1-34z" class="abfa-secondary"/><path d="M32.11 239l135.55-136a23.77 23.77 0 0133.79 0L224 125.74a23.94 23.94 0 010 33.89L127.89 256l96 96.47a23.94 23.94 0 010 33.89L201.35 409a23.77 23.77 0 01-33.79 0L32 273a24 24 0 01.11-34z" class="abfa-primary"/></svg><view id="angle-double-duotone-left-white" viewBox="848 3284 488 552"/><svg viewBox="-20 -20 488 552" fill="#fff" width="488" height="552" x="848" y="3284" xmlns="http://www.w3.org/2000/svg"><defs><style>.acfa-secondary{opacity:.4}</style></defs><path d="M224 239l135.61-136a23.78 23.78 0 0133.8 0L416 125.64a23.94 23.94 0 010 33.89l-96.16 96.37L416 352.27a23.94 23.94 0 010 33.89L393.53 409a23.78 23.78 0 01-33.8 0L224.12 273a23.94 23.94 0 01-.1-34z" class="acfa-secondary"/><path d="M32.11 239l135.55-136a23.77 23.77 0 0133.79 0L224 125.74a23.94 23.94 0 010 33.89L127.89 256l96 96.47a23.94 23.94 0 010 33.89L201.35 409a23.77 23.77 0 01-33.79 0L32 273a24 24 0 01.11-34z" class="acfa-primary"/></svg><view id="angle-double-duotone-right" viewBox="1336 3284 488 552"/><svg viewBox="-20 -20 488 552" fill="#666" width="488" height="552" x="1336" y="3284" xmlns="http://www.w3.org/2000/svg"><defs><style>.adfa-secondary{opacity:.4}</style></defs><path d="M224 273L88.37 409a23.78 23.78 0 01-33.8 0L32 386.36a23.94 23.94 0 010-33.89l96.13-96.37L32 159.73a23.94 23.94 0 010-33.89l22.44-22.79a23.78 23.78 0 0133.8 0L223.88 239a23.94 23.94 0 01.1 34z" class="adfa-secondary"/><path d="M415.89 273L280.34 409a23.77 23.77 0 01-33.79 0L224 386.26a23.94 23.94 0 010-33.89L320.11 256l-96-96.47a23.94 23.94 0 010-33.89l22.52-22.59a23.77 23.77 0 0133.79 0L416 239a24 24 0 01-.11 34z" class="adfa-primary"/></svg><view id="angle-double-duotone-right-white" viewBox="1824 3284 488 552"/><svg viewBox="-20 -20 488 552" fill="#fff" width="488" height="552" x="1824" y="3284" xmlns="http://www.w3.org/2000/svg"><defs><style>.aefa-secondary{opacity:.4}</style></defs><path d="M224 273L88.37 409a23.78 23.78 0 01-33.8 0L32 386.36a23.94 23.94 0 010-33.89l96.13-96.37L32 159.73a23.94 23.94 0 010-33.89l22.44-22.79a23.78 23.78 0 0133.8 0L223.88 239a23.94 23.94 0 01.1 34z" class="aefa-secondary"/><path d="M415.89 273L280.34 409a23.77 23.77 0 01-33.79 0L224 386.26a23.94 23.94 0 010-33.89L320.11 256l-96-96.47a23.94 23.94 0 010-33.89l22.52-22.59a23.77 23.77 0 0133.79 0L416 239a24 24 0 01-.11 34z" class="aefa-primary"/></svg><view id="angle-double-left" viewBox="2312 3284 424 552"/><svg viewBox="-20 -20 424 552" fill="#666" width="424" height="552" x="2312" y="3284" xmlns="http://www.w3.org/2000/svg"><path d="M20.2 247.5L167 99.5c4.7-4.7 12.3-4.7 17 0l19.8 19.8c4.7 4.7 4.7 12.3 0 17L85.3 256l118.5 119.7c4.7 4.7 4.7 12.3 0 17L184 412.5c-4.7 4.7-12.3 4.7-17 0l-146.8-148c-4.7-4.7-4.7-12.3 0-17zm160 17l146.8 148c4.7 4.7 12.3 4.7 17 0l19.8-19.8c4.7-4.7 4.7-12.3 0-17L245.3 256l118.5-119.7c4.7-4.7 4.7-12.3 0-17L344 99.5c-4.7-4.7-12.3-4.7-17 0l-146.8 148c-4.7 4.7-4.7 12.3 0 17z"/></svg><view id="angle-double-right" viewBox="2736 3284 424 552"/><svg viewBox="-20 -20 424 552" fill="#666" width="424" height="552" x="2736" y="3284" xmlns="http://www.w3.org/2000/svg"><path d="M363.8 264.5L217 412.5c-4.7 4.7-12.3 4.7-17 0l-19.8-19.8c-4.7-4.7-4.7-12.3 0-17L298.7 256 180.2 136.3c-4.7-4.7-4.7-12.3 0-17L200 99.5c4.7-4.7 12.3-4.7 17 0l146.8 148c4.7 4.7 4.7 12.3 0 17zm-160-17L57 99.5c-4.7-4.7-12.3-4.7-17 0l-19.8 19.8c-4.7 4.7-4.7 12.3 0 17L138.7 256 20.2 375.7c-4.7 4.7-4.7 12.3 0 17L40 412.5c4.7 4.7 12.3 4.7 17 0l146.8-148c4.7-4.7 4.7-12.3 0-17z"/></svg><view id="angle-double-up" viewBox="3160 3284 360 552"/><svg viewBox="-20 -20 360 552" fill="#666" width="360" height="552" x="3160" y="3284" xmlns="http://www.w3.org/2000/svg"><path d="M168.5 84.2l148 146.8c4.7 4.7 4.7 12.3 0 17l-19.8 19.8c-4.7 4.7-12.3 4.7-17 0L160 149.3 40.3 267.8c-4.7 4.7-12.3 4.7-17 0L3.5 248c-4.7-4.7-4.7-12.3 0-17l148-146.8c4.7-4.7 12.3-4.7 17 0zm-17 160L3.5 391c-4.7 4.7-4.7 12.3 0 17l19.8 19.8c4.7 4.7 12.3 4.7 17 0L160 309.3l119.7 118.5c4.7 4.7 12.3 4.7 17 0l19.8-19.8c4.7-4.7 4.7-12.3 0-17l-148-146.8c-4.7-4.7-12.3-4.7-17 0z"/></svg><view id="angle-down" viewBox="3520 3284 360 552"/><svg viewBox="-20 -20 360 552" fill="#666" width="360" height="552" x="3520" y="3284" xmlns="http://www.w3.org/2000/svg"><path d="M151.5 347.8L3.5 201c-4.7-4.7-4.7-12.3 0-17l19.8-19.8c4.7-4.7 12.3-4.7 17 0L160 282.7l119.7-118.5c4.7-4.7 12.3-4.7 17 0l19.8 19.8c4.7 4.7 4.7 12.3 0 17l-148 146.8c-4.7 4.7-12.3 4.7-17 0z"/></svg><view id="angle-down-white" viewBox="3952 0 360 552"/><svg viewBox="-20 -20 360 552" fill="#fff" width="360" height="552" x="3952" xmlns="http://www.w3.org/2000/svg"><path d="M151.5 347.8L3.5 201c-4.7-4.7-4.7-12.3 0-17l19.8-19.8c4.7-4.7 12.3-4.7 17 0L160 282.7l119.7-118.5c4.7-4.7 12.3-4.7 17 0l19.8 19.8c4.7 4.7 4.7 12.3 0 17l-148 146.8c-4.7 4.7-12.3 4.7-17 0z"/></svg><view id="angle-left" viewBox="4312 0 552 552"/><svg viewBox="-20 -20 552 552" fill="#666" width="552" height="552" x="4312" xmlns="http://www.w3.org/2000/svg"><path d="M164.2 247.5L311 99.5c4.7-4.7 12.3-4.7 17 0l19.8 19.8c4.7 4.7 4.7 12.3 0 17L229.3 256l118.5 119.7c4.7 4.7 4.7 12.3 0 17L328 412.5c-4.7 4.7-12.3 4.7-17 0l-146.8-148c-4.7-4.7-4.7-12.3 0-17z"/></svg><view id="angle-left-white" viewBox="4312 552 552 552"/><svg viewBox="-20 -20 552 552" fill="#fff" width="552" height="552" x="4312" y="552" xmlns="http://www.w3.org/2000/svg"><path d="M164.2 247.5L311 99.5c4.7-4.7 12.3-4.7 17 0l19.8 19.8c4.7 4.7 4.7 12.3 0 17L229.3 256l118.5 119.7c4.7 4.7 4.7 12.3 0 17L328 412.5c-4.7 4.7-12.3 4.7-17 0l-146.8-148c-4.7-4.7-4.7-12.3 0-17z"/></svg><view id="angle-right" viewBox="4312 1104 552 552"/><svg viewBox="-20 -20 552 552" fill="#666" width="552" height="552" x="4312" y="1104" xmlns="http://www.w3.org/2000/svg"><path d="M347.8 264.5L201 412.5c-4.7 4.7-12.3 4.7-17 0l-19.8-19.8c-4.7-4.7-4.7-12.3 0-17L282.7 256 164.2 136.3c-4.7-4.7-4.7-12.3 0-17L184 99.5c4.7-4.7 12.3-4.7 17 0l146.8 148c4.7 4.7 4.7 12.3 0 17z"/></svg><view id="angle-right-white" viewBox="4312 1656 552 552"/><svg viewBox="-20 -20 552 552" fill="#fff" width="552" height="552" x="4312" y="1656" xmlns="http://www.w3.org/2000/svg"><path d="M347.8 264.5L201 412.5c-4.7 4.7-12.3 4.7-17 0l-19.8-19.8c-4.7-4.7-4.7-12.3 0-17L282.7 256 164.2 136.3c-4.7-4.7-4.7-12.3 0-17L184 99.5c4.7-4.7 12.3-4.7 17 0l146.8 148c4.7 4.7 4.7 12.3 0 17z"/></svg><view id="angle-up" viewBox="4312 2208 360 552"/><svg viewBox="-20 -20 360 552" fill="#666" width="360" height="552" x="4312" y="2208" xmlns="http://www.w3.org/2000/svg"><path d="M168.5 164.2l148 146.8c4.7 4.7 4.7 12.3 0 17l-19.8 19.8c-4.7 4.7-12.3 4.7-17 0L160 229.3 40.3 347.8c-4.7 4.7-12.3 4.7-17 0L3.5 328c-4.7-4.7-4.7-12.3 0-17l148-146.8c4.7-4.7 12.3-4.7 17 0z"/></svg><view id="angle-up-white" viewBox="4312 2760 360 552"/><svg viewBox="-20 -20 360 552" fill="#fff" width="360" height="552" x="4312" y="2760" xmlns="http://www.w3.org/2000/svg"><path d="M168.5 164.2l148 146.8c4.7 4.7 4.7 12.3 0 17l-19.8 19.8c-4.7 4.7-12.3 4.7-17 0L160 229.3 40.3 347.8c-4.7 4.7-12.3 4.7-17 0L3.5 328c-4.7-4.7-4.7-12.3 0-17l148-146.8c4.7-4.7 12.3-4.7 17 0z"/></svg><view id="arrow-alt-to-right" viewBox="0 3836 488 552"/><svg viewBox="-20 -20 488 552" fill="#fff" width="488" height="552" y="3836" xmlns="http://www.w3.org/2000/svg"><path d="M448 88v336c0 13.3-10.7 24-24 24h-24c-13.3 0-24-10.7-24-24V88c0-13.3 10.7-24 24-24h24c13.3 0 24 10.7 24 24zM24 320h136v87.7c0 17.8 21.5 26.7 34.1 14.1l152.2-152.2c7.5-7.5 7.5-19.8 0-27.3L194.1 90.1c-12.6-12.6-34.1-3.7-34.1 14.1V192H24c-13.3 0-24 10.7-24 24v80c0 13.3 10.7 24 24 24z"/></svg><view id="asterisk" viewBox="488 3836 492 552"/><svg viewBox="-20 -20 492 552" width="492" height="552" x="488" y="3836" xmlns="http://www.w3.org/2000/svg"><path d="M436 340.3L290 256l146-84.3c15.3-8.8 20.5-28.4 11.7-43.7-8.8-15.3-28.4-20.5-43.7-11.7l-146 84.3V32c0-17.7-14.3-32-32-32s-32 14.3-32 32v168.6L48 116.3c-15.3-8.8-34.9-3.6-43.7 11.7-8.8 15.3-3.6 34.9 11.7 43.7L162 256 16 340.3C.7 349.1-4.5 368.7 4.3 384c8.8 15.3 28.4 20.6 43.7 11.7l146-84.3V480c0 17.7 14.3 32 32 32s32-14.3 32-32V311.4l146 84.3c15.3 8.8 34.9 3.6 43.7-11.7 8.8-15.3 3.6-34.9-11.7-43.7z"/></svg><view id="asterisk-red" viewBox="980 3836 492 552"/><svg viewBox="-20 -20 492 552" fill="#fa345e" width="492" height="552" x="980" y="3836" xmlns="http://www.w3.org/2000/svg"><path d="M436 340.3L290 256l146-84.3c15.3-8.8 20.5-28.4 11.7-43.7-8.8-15.3-28.4-20.5-43.7-11.7l-146 84.3V32c0-17.7-14.3-32-32-32s-32 14.3-32 32v168.6L48 116.3c-15.3-8.8-34.9-3.6-43.7 11.7-8.8 15.3-3.6 34.9 11.7 43.7L162 256 16 340.3C.7 349.1-4.5 368.7 4.3 384c8.8 15.3 28.4 20.6 43.7 11.7l146-84.3V480c0 17.7 14.3 32 32 32s32-14.3 32-32V311.4l146 84.3c15.3 8.8 34.9 3.6 43.7-11.7 8.8-15.3 3.6-34.9-11.7-43.7z"/></svg><view id="bars-doutone" viewBox="1472 3836 488 552"/><svg viewBox="-20 -20 488 552" width="488" height="552" x="1472" y="3836" xmlns="http://www.w3.org/2000/svg"><defs><style>.atfa-secondary{opacity:.4}</style></defs><path d="M16 288h416a16 16 0 0016-16v-32a16 16 0 00-16-16H16a16 16 0 00-16 16v32a16 16 0 0016 16z" class="atfa-secondary"/><path d="M432 384H16a16 16 0 00-16 16v32a16 16 0 0016 16h416a16 16 0 0016-16v-32a16 16 0 00-16-16zm0-320H16A16 16 0 000 80v32a16 16 0 0016 16h416a16 16 0 0016-16V80a16 16 0 00-16-16z" class="atfa-primary"/></svg><view id="bars-doutone-white" viewBox="1960 3836 488 552"/><svg viewBox="-20 -20 488 552" fill="rgba(255,255,255,.6)" width="488" height="552" x="1960" y="3836" xmlns="http://www.w3.org/2000/svg"><defs><style>.aufa-secondary{opacity:.4}</style></defs><path d="M16 288h416a16 16 0 0016-16v-32a16 16 0 00-16-16H16a16 16 0 00-16 16v32a16 16 0 0016 16z" class="aufa-secondary"/><path d="M432 384H16a16 16 0 00-16 16v32a16 16 0 0016 16h416a16 16 0 0016-16v-32a16 16 0 00-16-16zm0-320H16A16 16 0 000 80v32a16 16 0 0016 16h416a16 16 0 0016-16V80a16 16 0 00-16-16z" class="aufa-primary"/></svg><view id="bell" viewBox="2448 3836 488 552"/><svg viewBox="-20 -20 488 552" width="488" height="552" x="2448" y="3836" xmlns="http://www.w3.org/2000/svg"><path d="M425.403 330.939c-16.989-16.785-34.546-34.143-34.546-116.083 0-83.026-60.958-152.074-140.467-164.762A31.843 31.843 0 00256 32c0-17.673-14.327-32-32-32s-32 14.327-32 32a31.848 31.848 0 005.609 18.095C118.101 62.783 57.143 131.831 57.143 214.857c0 81.933-17.551 99.292-34.543 116.078C-25.496 378.441 9.726 448 66.919 448H160c0 35.346 28.654 64 64 64 35.346 0 64-28.654 64-64h93.08c57.19 0 92.415-69.583 44.323-117.061zM224 472c-13.234 0-24-10.766-24-24h48c0 13.234-10.766 24-24 24zm157.092-72H66.9c-16.762 0-25.135-20.39-13.334-32.191 28.585-28.585 51.577-55.724 51.577-152.952C105.143 149.319 158.462 96 224 96s118.857 53.319 118.857 118.857c0 97.65 23.221 124.574 51.568 152.952C406.278 379.661 397.783 400 381.092 400z"/></svg><view id="bell-cog" viewBox="2936 3836 552 552"/><svg viewBox="-20 -20 552 552" fill="#777" width="552" height="552" x="2936" y="3836" xmlns="http://www.w3.org/2000/svg"><path class="awst0" d="M501.7 361.2l-22.1-12.7c2.2-12 2.2-24.3 0-36.3l22.1-12.7c2.5-1.4 3.7-4.5 2.8-7.2-5.7-18.4-15.5-35.1-28.3-49-2-2.1-5.2-2.6-7.7-1.2l-22.1 12.7c-9.3-8-19.9-14.1-31.5-18.2v-25.4c0-2.9-2-5.4-4.9-6.1-19-4.2-38.5-4-56.5 0-2.8.6-4.9 3.2-4.9 6.1v25.5c-11.5 4.1-22.2 10.3-31.5 18.2l-22-12.7c-2.5-1.4-5.7-1-7.7 1.2-12.8 13.8-22.6 30.5-28.3 49-.9 2.8.3 5.8 2.8 7.2l22.1 12.7c-2.2 12-2.2 24.3 0 36.3l-22.1 12.7c-2.5 1.4-3.7 4.5-2.8 7.2 5.7 18.4 15.5 35.1 28.3 49 2 2.1 5.2 2.6 7.7 1.2l22.1-12.7c9.3 8 19.9 14.1 31.5 18.2v25.5c0 2.9 2 5.4 4.9 6.1 19 4.2 38.5 4 56.5 0 2.8-.6 4.9-3.2 4.9-6.1v-25.5c11.5-4.1 22.2-10.3 31.5-18.2l22.1 12.7c2.5 1.4 5.7 1 7.7-1.2 12.8-13.8 22.6-30.5 28.3-49 .8-2.8-.4-5.8-2.9-7.3zm-119.8 10.5c-22.8 0-41.4-18.6-41.4-41.4 0-22.8 18.6-41.4 41.4-41.4 22.8 0 41.4 18.6 41.4 41.4 0 22.8-18.6 41.4-41.4 41.4z"/><path class="awst1" d="M224 368H73.5c21.2-28 44.4-74.3 44.5-159.4 0-.2-.1-.4-.1-.6 0-61.9 50.1-112 112-112 47.9 0 88.8 30.1 104.8 72.4H385c-15-58.6-62.6-103-123-115.5V32c0-17.7-14.3-32-32-32s-32 14.3-32 32v20.8C124.6 68.1 70.1 130.3 70.1 208c0 102.3-36.2 133.5-55.5 154.3-6 6.4-8.6 14.1-8.6 21.7.1 16.4 13 32 32.1 32H224v-48zM230 512c35.3 0 64-28.7 64-64H166c0 35.3 28.7 64 64 64z"/></svg><view id="bell-cog-white" viewBox="3488 3836 552 552"/><svg viewBox="-20 -20 552 552" fill="rgba(255,255,255,.6)" width="552" height="552" x="3488" y="3836" xmlns="http://www.w3.org/2000/svg"><path class="axst0" d="M501.7 361.2l-22.1-12.7c2.2-12 2.2-24.3 0-36.3l22.1-12.7c2.5-1.4 3.7-4.5 2.8-7.2-5.7-18.4-15.5-35.1-28.3-49-2-2.1-5.2-2.6-7.7-1.2l-22.1 12.7c-9.3-8-19.9-14.1-31.5-18.2v-25.4c0-2.9-2-5.4-4.9-6.1-19-4.2-38.5-4-56.5 0-2.8.6-4.9 3.2-4.9 6.1v25.5c-11.5 4.1-22.2 10.3-31.5 18.2l-22-12.7c-2.5-1.4-5.7-1-7.7 1.2-12.8 13.8-22.6 30.5-28.3 49-.9 2.8.3 5.8 2.8 7.2l22.1 12.7c-2.2 12-2.2 24.3 0 36.3l-22.1 12.7c-2.5 1.4-3.7 4.5-2.8 7.2 5.7 18.4 15.5 35.1 28.3 49 2 2.1 5.2 2.6 7.7 1.2l22.1-12.7c9.3 8 19.9 14.1 31.5 18.2v25.5c0 2.9 2 5.4 4.9 6.1 19 4.2 38.5 4 56.5 0 2.8-.6 4.9-3.2 4.9-6.1v-25.5c11.5-4.1 22.2-10.3 31.5-18.2l22.1 12.7c2.5 1.4 5.7 1 7.7-1.2 12.8-13.8 22.6-30.5 28.3-49 .8-2.8-.4-5.8-2.9-7.3zm-119.8 10.5c-22.8 0-41.4-18.6-41.4-41.4 0-22.8 18.6-41.4 41.4-41.4 22.8 0 41.4 18.6 41.4 41.4 0 22.8-18.6 41.4-41.4 41.4z"/><path class="axst1" d="M224 368H73.5c21.2-28 44.4-74.3 44.5-159.4 0-.2-.1-.4-.1-.6 0-61.9 50.1-112 112-112 47.9 0 88.8 30.1 104.8 72.4H385c-15-58.6-62.6-103-123-115.5V32c0-17.7-14.3-32-32-32s-32 14.3-32 32v20.8C124.6 68.1 70.1 130.3 70.1 208c0 102.3-36.2 133.5-55.5 154.3-6 6.4-8.6 14.1-8.6 21.7.1 16.4 13 32 32.1 32H224v-48zM230 512c35.3 0 64-28.7 64-64H166c0 35.3 28.7 64 64 64z"/></svg><view id="bell-danger" viewBox="4040 3836 488 552"/><svg viewBox="-20 -20 488 552" fill="#e40a13" width="488" height="552" x="4040" y="3836" xmlns="http://www.w3.org/2000/svg"><path d="M224 512a64 64 0 0064-64H160a64 64 0 0064 64zm215.39-149.71c-19.32-20.76-55.47-52-55.47-154.29 0-77.7-54.48-139.9-127.94-155.16V32a32 32 0 10-64 0v20.84C118.56 68.1 64.08 130.3 64.08 208c0 102.3-36.15 133.53-55.47 154.29A31.24 31.24 0 000 384c.11 16.4 13 32 32.1 32h383.8c19.12 0 32-15.6 32.1-32a31.23 31.23 0 00-8.61-21.71zM224 352a32 32 0 1132-32 32 32 0 01-32 32zm25.4-110.4a16 16 0 01-15.9 14.4h-19a16 16 0 01-15.9-14.4l-12.8-96a16.06 16.06 0 0115.9-17.6h44.6a16 16 0 0115.9 17.6z"/></svg><view id="bell-warning" viewBox="4864 0 488 552"/><svg viewBox="-20 -20 488 552" fill="#ffb31a" width="488" height="552" x="4864" xmlns="http://www.w3.org/2000/svg"><path d="M224 512a64 64 0 0064-64H160a64 64 0 0064 64zm215.39-149.71c-19.32-20.76-55.47-52-55.47-154.29 0-77.7-54.48-139.9-127.94-155.16V32a32 32 0 10-64 0v20.84C118.56 68.1 64.08 130.3 64.08 208c0 102.3-36.15 133.53-55.47 154.29A31.24 31.24 0 000 384c.11 16.4 13 32 32.1 32h383.8c19.12 0 32-15.6 32.1-32a31.23 31.23 0 00-8.61-21.71zM224 352a32 32 0 1132-32 32 32 0 01-32 32zm25.4-110.4a16 16 0 01-15.9 14.4h-19a16 16 0 01-15.9-14.4l-12.8-96a16.06 16.06 0 0115.9-17.6h44.6a16 16 0 0115.9 17.6z"/></svg><view id="browser" viewBox="0 4388 552 552"/><svg viewBox="-20 -20 552 552" width="552" height="552" y="4388" xmlns="http://www.w3.org/2000/svg"><defs><style>.bafa-secondary{opacity:.4}</style></defs><path d="M76 160h40a12 12 0 0012-12v-40a12 12 0 00-12-12H76a12 12 0 00-12 12v40a12 12 0 0012 12zM0 224v208a48 48 0 0048 48h416a48 48 0 0048-48V224z" class="bafa-secondary"/><path d="M464 32H48A48 48 0 000 80v144h512V80a48 48 0 00-48-48zM128 148a12 12 0 01-12 12H76a12 12 0 01-12-12v-40a12 12 0 0112-12h40a12 12 0 0112 12zm320 0a12 12 0 01-12 12H188a12 12 0 01-12-12v-40a12 12 0 0112-12h248a12 12 0 0112 12z" class="bafa-primary"/></svg><view id="building-user" viewBox="4312 3312 552 430"/><svg viewBox="-20 -20 552 430" fill="#fff" width="552" height="430" x="4312" y="3312" xmlns="http://www.w3.org/2000/svg"><defs><style>.bbfa-secondary{opacity:.4}</style></defs><path d="M255.607.168H25.56C11.444.168 0 11.586 0 25.671v351.577C0 384.291 5.722 390 12.78 390h230.294a62.6 62.6 0 01-13.028-37.625 113.914 113.914 0 0133.477-81.562 115.878 115.878 0 0117.644-14.21V25.671c0-14.085-11.443-25.503-25.56-25.503zm-140.584 303.76c0 5.281-4.291 9.563-9.585 9.563H73.487c-5.294 0-9.585-4.282-9.585-9.564V272.05c0-5.282 4.291-9.564 9.585-9.564h31.95c5.295 0 9.586 4.282 9.586 9.564v31.878zm0-102.013c0 5.282-4.291 9.564-9.585 9.564H73.487c-5.294 0-9.585-4.282-9.585-9.564v-31.879c0-5.281 4.291-9.563 9.585-9.563h31.95c5.295 0 9.586 4.282 9.586 9.563v31.88zm102.243 102.012c0 5.282-4.292 9.564-9.586 9.564h-31.95c-5.294 0-9.586-4.282-9.586-9.564V272.05c0-5.282 4.292-9.564 9.586-9.564h31.95c5.294 0 9.586 4.282 9.586 9.564v31.878zm0-102.012c0 5.282-4.292 9.564-9.586 9.564h-31.95c-5.294 0-9.586-4.282-9.586-9.564v-31.879c0-5.281 4.292-9.563 9.586-9.563h31.95c5.294 0 9.586 4.282 9.586 9.563v31.88zm-102.17-91.082c0 5.282-4.291 9.564-9.585 9.564H73.56c-5.294 0-9.585-4.282-9.585-9.564V78.954c0-5.282 4.291-9.563 9.585-9.563h31.95c5.295 0 9.586 4.281 9.586 9.563v31.879zm102.243 0c0 5.282-4.292 9.564-9.585 9.564h-31.951c-5.294 0-9.586-4.282-9.586-9.564V78.954c0-5.282 4.292-9.563 9.586-9.563h31.95c5.294 0 9.586 4.281 9.586 9.563v31.879z"/><path class="bbfa-secondary" d="M422.246 262.485h-.495a18.278 18.278 0 00-5.64.869 99.908 99.908 0 01-65.41 0 18.27 18.27 0 00-5.632-.87c-49.409 0-89.462 39.964-89.462 89.261v.495c.112 20.928 17.357 37.76 38.34 37.76h178.926c20.983 0 38.229-16.832 38.342-37.76a89.163 89.163 0 00-25.854-63.262 89.563 89.563 0 00-63.115-26.493zm-38.836-25.503c42.35 0 76.682-34.254 76.682-76.51 0-42.254-34.332-76.508-76.682-76.508s-76.682 34.254-76.682 76.509 34.332 76.509 76.682 76.509z"/></svg><view id="calendar" viewBox="4864 552 488 552"/><svg viewBox="-20 -20 488 552" fill="#6f82ab" width="488" height="552" x="4864" y="552" xmlns="http://www.w3.org/2000/svg"><path d="M0 464c0 26.5 21.5 48 48 48h352c26.5 0 48-21.5 48-48V192H0v272zm320-196c0-6.6 5.4-12 12-12h40c6.6 0 12 5.4 12 12v40c0 6.6-5.4 12-12 12h-40c-6.6 0-12-5.4-12-12v-40zm0 128c0-6.6 5.4-12 12-12h40c6.6 0 12 5.4 12 12v40c0 6.6-5.4 12-12 12h-40c-6.6 0-12-5.4-12-12v-40zM192 268c0-6.6 5.4-12 12-12h40c6.6 0 12 5.4 12 12v40c0 6.6-5.4 12-12 12h-40c-6.6 0-12-5.4-12-12v-40zm0 128c0-6.6 5.4-12 12-12h40c6.6 0 12 5.4 12 12v40c0 6.6-5.4 12-12 12h-40c-6.6 0-12-5.4-12-12v-40zM64 268c0-6.6 5.4-12 12-12h40c6.6 0 12 5.4 12 12v40c0 6.6-5.4 12-12 12H76c-6.6 0-12-5.4-12-12v-40zm0 128c0-6.6 5.4-12 12-12h40c6.6 0 12 5.4 12 12v40c0 6.6-5.4 12-12 12H76c-6.6 0-12-5.4-12-12v-40zM400 64h-48V16c0-8.8-7.2-16-16-16h-32c-8.8 0-16 7.2-16 16v48H160V16c0-8.8-7.2-16-16-16h-32c-8.8 0-16 7.2-16 16v48H48C21.5 64 0 85.5 0 112v48h448v-48c0-26.5-21.5-48-48-48z"/></svg><view id="calendar-duotone" viewBox="4864 1104 488 552"/><svg viewBox="-20 -20 488 552" opacity=".8" width="488" height="552" x="4864" y="1104" xmlns="http://www.w3.org/2000/svg"><defs><style>.bdfa-secondary{opacity:.4}</style></defs><path d="M0 192v272a48 48 0 0048 48h352a48 48 0 0048-48V192zm128 244a12 12 0 01-12 12H76a12 12 0 01-12-12v-40a12 12 0 0112-12h40a12 12 0 0112 12zm0-128a12 12 0 01-12 12H76a12 12 0 01-12-12v-40a12 12 0 0112-12h40a12 12 0 0112 12zm128 128a12 12 0 01-12 12h-40a12 12 0 01-12-12v-40a12 12 0 0112-12h40a12 12 0 0112 12zm0-128a12 12 0 01-12 12h-40a12 12 0 01-12-12v-40a12 12 0 0112-12h40a12 12 0 0112 12zm128 128a12 12 0 01-12 12h-40a12 12 0 01-12-12v-40a12 12 0 0112-12h40a12 12 0 0112 12zm0-128a12 12 0 01-12 12h-40a12 12 0 01-12-12v-40a12 12 0 0112-12h40a12 12 0 0112 12zm-80-180h32a16 16 0 0016-16V16a16 16 0 00-16-16h-32a16 16 0 00-16 16v96a16 16 0 0016 16zm-192 0h32a16 16 0 0016-16V16a16 16 0 00-16-16h-32a16 16 0 00-16 16v96a16 16 0 0016 16z" class="bdfa-secondary"/><path d="M448 112v80H0v-80a48 48 0 0148-48h48v48a16 16 0 0016 16h32a16 16 0 0016-16V64h128v48a16 16 0 0016 16h32a16 16 0 0016-16V64h48a48 48 0 0148 48z" class="bdfa-primary"/></svg><view id="caret-down" viewBox="565 2824 552 330"/><svg viewBox="-20 -20 552 330" fill="#6f82ab" width="552" height="330" x="565" y="2824" xmlns="http://www.w3.org/2000/svg"><path d="M34.878 0H476.95c30.583 0 45.874 36.893 24.226 58.515L280.226 279.36c-13.402 13.385-35.222 13.385-48.623 0L10.653 58.515C-10.997 36.893 4.294 0 34.877 0z"/></svg><view id="caret-up" viewBox="1117 2824 552 330"/><svg viewBox="-20 -20 552 330" fill="#6f82ab" width="552" height="330" x="1117" y="2824" xmlns="http://www.w3.org/2000/svg"><path d="M477.057 289.288H34.943c-30.613 0-45.944-36.876-24.298-58.443L231.702 10.606c13.419-13.369 35.177-13.369 48.596 0l221.057 220.24c21.648 21.566 6.315 58.442-24.298 58.442z"/></svg><view id="chart-line-duotone" viewBox="552 4388 552 552"/><svg viewBox="-20 -20 552 552" fill="#fff" width="552" height="552" x="552" y="4388" xmlns="http://www.w3.org/2000/svg"><defs><style>.bgfa-secondary{opacity:.4}</style></defs><path d="M512 400v32a16 16 0 01-16 16H32a32 32 0 01-32-32V80a16 16 0 0116-16h32a16 16 0 0116 16v304h432a16 16 0 0116 16z" class="bgfa-secondary"/><path d="M480 112v118.05c0 21.38-25.85 32.09-41 17l-32.4-32.4-96 96a32 32 0 01-45.25 0L192 237.25l-46.06 46.07a16 16 0 01-22.63 0l-22.62-22.62a16 16 0 010-22.63l68.69-68.69a32 32 0 0145.25 0L288 242.75l73.37-73.38L329 137c-15.12-15.12-4.41-41 17-41h118a16 16 0 0116 16z" class="bgfa-primary"/></svg><view id="chart-network" viewBox="0 0 680 552"/><svg viewBox="-20 -20 680 552" fill="#fff" width="680" height="552" xmlns="http://www.w3.org/2000/svg"><defs><style>.bhfa-secondary{opacity:.4}</style></defs><path d="M64 240a64 64 0 1064 64 64.06 64.06 0 00-64-64zm88 80h48v-32h-48zm294.4-106.8l19.2 25.6 48-36-19.2-25.6zM576 64a64 64 0 1064 64 64.06 64.06 0 00-64-64z" class="bhfa-secondary"/><path d="M576 384a63.84 63.84 0 00-38.3 13l-96-57.6a109.91 109.91 0 006.3-35.5 111.94 111.94 0 00-112-112 108.64 108.64 0 00-24.4 2.9l-40.8-87.4A63.84 63.84 0 10224 128c1.1 0 2.1-.3 3.2-.3l41 87.8C241.5 235.9 224 267.8 224 304a111.71 111.71 0 00193.2 76.7l95.8 57.5a63.87 63.87 0 1063-54.2zm-240-32a48 48 0 1148-48 48 48 0 01-48 48z" class="bhfa-primary"/></svg><view id="check" viewBox="1104 4388 552 552"/><svg viewBox="-20 -20 552 552" width="552" height="552" x="1104" y="4388" xmlns="http://www.w3.org/2000/svg"><path d="M173.898 439.404l-166.4-166.4c-9.997-9.997-9.997-26.206 0-36.204l36.203-36.204c9.997-9.998 26.207-9.998 36.204 0L192 312.69 432.095 72.596c9.997-9.997 26.207-9.997 36.204 0l36.203 36.204c9.997 9.997 9.997 26.206 0 36.204l-294.4 294.401c-9.998 9.997-26.207 9.997-36.204-.001z"/></svg><view id="check-white" viewBox="1656 4388 552 552"/><svg viewBox="-20 -20 552 552" fill="#fff" width="552" height="552" x="1656" y="4388" xmlns="http://www.w3.org/2000/svg"><path d="M173.898 439.404l-166.4-166.4c-9.997-9.997-9.997-26.206 0-36.204l36.203-36.204c9.997-9.998 26.207-9.998 36.204 0L192 312.69 432.095 72.596c9.997-9.997 26.207-9.997 36.204 0l36.203 36.204c9.997 9.997 9.997 26.206 0 36.204l-294.4 294.401c-9.998 9.997-26.207 9.997-36.204-.001z"/></svg><view id="clock" viewBox="2208 4388 552 552"/><svg viewBox="-20 -20 552 552" width="552" height="552" x="2208" y="4388" xmlns="http://www.w3.org/2000/svg"><path d="M256 8C119 8 8 119 8 256s111 248 248 248 248-111 248-248S393 8 256 8zm0 448c-110.5 0-200-89.5-200-200S145.5 56 256 56s200 89.5 200 200-89.5 200-200 200zm61.8-104.4l-84.9-61.7c-3.1-2.3-4.9-5.9-4.9-9.7V116c0-6.6 5.4-12 12-12h32c6.6 0 12 5.4 12 12v141.7l66.8 48.6c5.4 3.9 6.5 11.4 2.6 16.8L334.6 349c-3.9 5.3-11.4 6.5-16.8 2.6z"/></svg><view id="clock-white" viewBox="2760 4388 552 552"/><svg viewBox="-20 -20 552 552" fill="#fff" width="552" height="552" x="2760" y="4388" xmlns="http://www.w3.org/2000/svg"><path d="M256 8C119 8 8 119 8 256s111 248 248 248 248-111 248-248S393 8 256 8zm0 448c-110.5 0-200-89.5-200-200S145.5 56 256 56s200 89.5 200 200-89.5 200-200 200zm61.8-104.4l-84.9-61.7c-3.1-2.3-4.9-5.9-4.9-9.7V116c0-6.6 5.4-12 12-12h32c6.6 0 12 5.4 12 12v141.7l66.8 48.6c5.4 3.9 6.5 11.4 2.6 16.8L334.6 349c-3.9 5.3-11.4 6.5-16.8 2.6z"/></svg><view id="cog" viewBox="3312 4388 552 552"/><svg viewBox="-20 -20 552 552" fill="#777" width="552" height="552" x="3312" y="4388" xmlns="http://www.w3.org/2000/svg"><path d="M452.515 237l31.843-18.382c9.426-5.441 13.996-16.542 11.177-27.054-11.404-42.531-33.842-80.547-64.058-110.797-7.68-7.688-19.575-9.246-28.985-3.811l-31.785 18.358a196.276 196.276 0 00-32.899-19.02V39.541a24.016 24.016 0 00-17.842-23.206c-41.761-11.107-86.117-11.121-127.93-.001-10.519 2.798-17.844 12.321-17.844 23.206v36.753a196.276 196.276 0 00-32.899 19.02l-31.785-18.358c-9.41-5.435-21.305-3.877-28.985 3.811-30.216 30.25-52.654 68.265-64.058 110.797-2.819 10.512 1.751 21.613 11.177 27.054L59.485 237a197.715 197.715 0 000 37.999l-31.843 18.382c-9.426 5.441-13.996 16.542-11.177 27.054 11.404 42.531 33.842 80.547 64.058 110.797 7.68 7.688 19.575 9.246 28.985 3.811l31.785-18.358a196.202 196.202 0 0032.899 19.019v36.753a24.016 24.016 0 0017.842 23.206c41.761 11.107 86.117 11.122 127.93.001 10.519-2.798 17.844-12.321 17.844-23.206v-36.753a196.34 196.34 0 0032.899-19.019l31.785 18.358c9.41 5.435 21.305 3.877 28.985-3.811 30.216-30.25 52.654-68.266 64.058-110.797 2.819-10.512-1.751-21.613-11.177-27.054L452.515 275c1.22-12.65 1.22-25.35 0-38zm-52.679 63.019l43.819 25.289a200.138 200.138 0 01-33.849 58.528l-43.829-25.309c-31.984 27.397-36.659 30.077-76.168 44.029v50.599a200.917 200.917 0 01-67.618 0v-50.599c-39.504-13.95-44.196-16.642-76.168-44.029l-43.829 25.309a200.15 200.15 0 01-33.849-58.528l43.819-25.289c-7.63-41.299-7.634-46.719 0-88.038l-43.819-25.289c7.85-21.229 19.31-41.049 33.849-58.529l43.829 25.309c31.984-27.397 36.66-30.078 76.168-44.029V58.845a200.917 200.917 0 0167.618 0v50.599c39.504 13.95 44.196 16.642 76.168 44.029l43.829-25.309a200.143 200.143 0 0133.849 58.529l-43.819 25.289c7.631 41.3 7.634 46.718 0 88.037zM256 160c-52.935 0-96 43.065-96 96s43.065 96 96 96 96-43.065 96-96-43.065-96-96-96zm0 144c-26.468 0-48-21.532-48-48 0-26.467 21.532-48 48-48s48 21.533 48 48c0 26.468-21.532 48-48 48z"/></svg><view id="comment" viewBox="3864 4388 552 552"/><svg viewBox="-20 -20 552 552" fill="#1FABE5" width="552" height="552" x="3864" y="4388" xmlns="http://www.w3.org/2000/svg"><path d="M256 32C114.6 32 0 125.1 0 240c0 49.6 21.4 95 57 130.7C44.5 421.1 2.7 466 2.2 466.5c-2.2 2.3-2.8 5.7-1.5 8.7S4.8 480 8 480c66.3 0 116-31.8 140.6-51.4 32.7 12.3 69 19.4 107.4 19.4 141.4 0 256-93.1 256-208S397.4 32 256 32z"/></svg><view id="confirm" viewBox="5904 4968 520 400"/><svg viewBox="-20 -20 520 400" width="520" height="400" x="5904" y="4968" xmlns="http://www.w3.org/2000/svg"><path d="M431.462 0L480 48.555 168.664 360l-.169-.168-.167.166L0 191.612l48.537-48.556 119.96 120.002z"/></svg><view id="confirm-white" viewBox="5352 4416 520 400"/><svg viewBox="-20 -20 520 400" fill="#fff" width="520" height="400" x="5352" y="4416" xmlns="http://www.w3.org/2000/svg"><path d="M431.462 0L480 48.555 168.664 360l-.169-.168-.167.166L0 191.612l48.537-48.556 119.96 120.002z"/></svg><view id="copy" viewBox="4864 1656 488 552"/><svg viewBox="-20 -20 488 552" width="488" height="552" x="4864" y="1656" xmlns="http://www.w3.org/2000/svg"><path d="M433.941 65.941l-51.882-51.882A48 48 0 00348.118 0H176c-26.51 0-48 21.49-48 48v48H48c-26.51 0-48 21.49-48 48v320c0 26.51 21.49 48 48 48h224c26.51 0 48-21.49 48-48v-48h80c26.51 0 48-21.49 48-48V99.882a48 48 0 00-14.059-33.941zM266 464H54a6 6 0 01-6-6V150a6 6 0 016-6h74v224c0 26.51 21.49 48 48 48h96v42a6 6 0 01-6 6zm128-96H182a6 6 0 01-6-6V54a6 6 0 016-6h106v88c0 13.255 10.745 24 24 24h88v202a6 6 0 01-6 6zm6-256h-64V48h9.632c1.591 0 3.117.632 4.243 1.757l48.368 48.368a6 6 0 011.757 4.243V112z"/></svg><view id="crown" viewBox="680 0 680 552"/><svg viewBox="-20 -20 680 552" fill="#ffb31a" width="680" height="552" x="680" xmlns="http://www.w3.org/2000/svg"><defs><style>.brfa-secondary{opacity:.4}</style></defs><path d="M544 464v32a16 16 0 01-16 16H112a16 16 0 01-16-16v-32a16 16 0 0116-16h416a16 16 0 0116 16z" class="brfa-secondary"/><path d="M640 176a48 48 0 01-48 48 49 49 0 01-7.7-.8L512 416H128L55.7 223.2a49 49 0 01-7.7.8 48.36 48.36 0 1143.7-28.2l72.3 43.4a32 32 0 0044.2-11.6L289.7 85a48 48 0 1160.6 0l81.5 142.6a32 32 0 0044.2 11.6l72.4-43.4A47 47 0 01544 176a48 48 0 0196 0z" class="brfa-primary"/></svg><view id="download-solid" viewBox="3336 1104 520 600"/><svg viewBox="-20 -20 520 600" fill="#888" width="520" height="600" x="3336" y="1104" xmlns="http://www.w3.org/2000/svg"><path d="M450 560H30c-16.625 0-30-13.375-30-30v-30c0-16.625 13.375-30 30-30h420c16.625 0 30 13.375 30 30v30c0 16.625-13.375 30-30 30zM160 30v170H50.375C28.125 200 17 226.875 32.75 242.625L223 432.875c9.375 9.375 24.75 9.375 34.125 0l190.25-190.25C463.125 226.875 452 200 429.75 200H320V30c0-16.625-13.375-30-30-30H190c-16.625 0-30 13.375-30 30z"/></svg><view id="download-solid-white" viewBox="3336 1704 520 600"/><svg viewBox="-20 -20 520 600" fill="#fff" width="520" height="600" x="3336" y="1704" xmlns="http://www.w3.org/2000/svg"><path d="M450 560H30c-16.625 0-30-13.375-30-30v-30c0-16.625 13.375-30 30-30h420c16.625 0 30 13.375 30 30v30c0 16.625-13.375 30-30 30zM160 30v170H50.375C28.125 200 17 226.875 32.75 242.625L223 432.875c9.375 9.375 24.75 9.375 34.125 0l190.25-190.25C463.125 226.875 452 200 429.75 200H320V30c0-16.625-13.375-30-30-30H190c-16.625 0-30 13.375-30 30z"/></svg><view id="edit" viewBox="2720 0 616 552"/><svg viewBox="-20 -20 616 552" width="616" height="552" x="2720" xmlns="http://www.w3.org/2000/svg"><path d="M402.6 83.2l90.2 90.2c3.8 3.8 3.8 10 0 13.8L274.4 405.6l-92.8 10.3c-12.4 1.4-22.9-9.1-21.5-21.5l10.3-92.8L388.8 83.2c3.8-3.8 10-3.8 13.8 0zm162-22.9l-48.8-48.8c-15.2-15.2-39.9-15.2-55.2 0l-35.4 35.4c-3.8 3.8-3.8 10 0 13.8l90.2 90.2c3.8 3.8 10 3.8 13.8 0l35.4-35.4c15.2-15.3 15.2-40 0-55.2zM384 346.2V448H64V128h229.8c3.2 0 6.2-1.3 8.5-3.5l40-40c7.6-7.6 2.2-20.5-8.5-20.5H48C21.5 64 0 85.5 0 112v352c0 26.5 21.5 48 48 48h352c26.5 0 48-21.5 48-48V306.2c0-10.7-12.9-16-20.5-8.5l-40 40c-2.2 2.3-3.5 5.3-3.5 8.5z"/></svg><view id="ellipsis-v" viewBox="4416 4388 552 552"/><svg viewBox="-20 -20 552 552" fill="#909090" width="552" height="552" x="4416" y="4388" xmlns="http://www.w3.org/2000/svg"><path d="M256 208c26.5 0 48 21.5 48 48s-21.5 48-48 48-48-21.5-48-48 21.5-48 48-48zm-48-104c0 26.5 21.5 48 48 48s48-21.5 48-48-21.5-48-48-48-48 21.5-48 48zm0 304c0 26.5 21.5 48 48 48s48-21.5 48-48-21.5-48-48-48-48 21.5-48 48z"/></svg><view id="envelope" viewBox="5352 0 552 552"/><svg viewBox="-20 -20 552 552" fill="#777" width="552" height="552" x="5352" xmlns="http://www.w3.org/2000/svg"><defs><style>.bwfa-secondary{opacity:.4}</style></defs><path d="M256.47 352h-.94c-30.1 0-60.41-23.42-82.54-40.52C169.39 308.7 24.77 202.7 0 183.33V400a48 48 0 0048 48h416a48 48 0 0048-48V183.36c-24.46 19.17-169.4 125.34-173 128.12-22.12 17.1-52.43 40.52-82.53 40.52zM464 64H48a48 48 0 00-48 48v19a24.08 24.08 0 009.2 18.9c30.6 23.9 40.7 32.4 173.4 128.7 16.8 12.2 50.2 41.8 73.4 41.4 23.2.4 56.6-29.2 73.4-41.4 132.7-96.3 142.8-104.7 173.4-128.7A23.93 23.93 0 00512 131v-19a48 48 0 00-48-48z" class="bwfa-secondary"/><path d="M512 131v52.36c-24.46 19.17-169.4 125.34-173 128.12-22.12 17.1-52.43 40.52-82.53 40.52h-.94c-30.1 0-60.41-23.42-82.54-40.52C169.39 308.7 24.77 202.7 0 183.33V131a24.08 24.08 0 009.2 18.9c30.6 23.9 40.7 32.4 173.4 128.7 16.69 12.12 49.75 41.4 72.93 41.4h.94c23.18 0 56.24-29.28 72.93-41.4 132.7-96.3 142.8-104.7 173.4-128.7A23.93 23.93 0 00512 131z" class="bwfa-primary"/></svg><view id="excel" viewBox="5096 3312 129 126"/><svg viewBox="-20 -20 129 126" fill="#207245" width="129" height="126" x="5096" y="3312" xmlns="http://www.w3.org/2000/svg"><path class="bxcls-1" d="M88 66V14c-.07-1.7 0-3.58-1-5.06-1.47-1-3.33-.89-5-1C72 8 62 8 52 8V0h-6C30.7 2.71 15.35 5.34 0 8v70c15.26 2.67 30.53 5.23 45.77 8H52v-9h31.1c1.67-.07 4.17-.12 4.57-2.2.59-2.87.27-5.8.33-8.8zm-58.54-7.4c-1.7-4.17-3.77-8.2-5-12.56C23.1 50.15 21.16 54 19.6 58c-2.19 0-4.38-.12-6.57-.21 2.57-5 5-10.1 7.7-15.1-2.25-5.15-4.72-10.2-7-15.32l6.6-.38c1.49 3.91 3.12 7.77 4.35 11.78 1.32-4.25 3.29-8.25 5-12.36q3.39-.24 6.8-.41-4 8.2-8.07 16.39c2.75 5.6 5.56 11.16 8.32 16.76-2.47-.15-4.87-.33-7.28-.5zM85 74H52v-6h8v-7h-8v-4h8v-7h-8v-4h8v-7h-8v-4h8v-7h-8v-4h8v-7h-8v-6h33z"/><path class="bxcls-1" d="M78 17H64v7h14zM78 28H64v7h14zM78 39H64v7h14zM78 50H64v7h14zM78 61H64v7h14z"/></svg><view id="exchange-alt" viewBox="5352 552 552 552"/><svg viewBox="-20 -20 552 552" fill="#6f82ab" width="552" height="552" x="5352" y="552" xmlns="http://www.w3.org/2000/svg"><path d="M508.485 168.48l-96.16 96.16c-7.58 7.58-20.485 2.14-20.485-8.485L391.833 184H12c-6.627 0-12-5.373-12-12v-24c0-6.627 5.373-12 12-12h379.833l.01-72.162c.001-10.683 12.949-16.022 20.485-8.485l96.156 96.156c4.687 4.686 4.688 12.285.001 16.971zM3.515 360.491l96.156 96.156c7.536 7.536 20.484 2.198 20.485-8.485l.01-72.162H500c6.627 0 12-5.373 12-12v-24c0-6.628-5.373-12-12-12H120.167l-.007-72.154c0-10.625-12.905-16.066-20.485-8.485l-96.16 96.16c-4.687 4.685-4.686 12.284 0 16.97z"/></svg><view id="exclamation-circle" viewBox="5352 1104 552 552"/><svg viewBox="-20 -20 552 552" fill="#666" width="552" height="552" x="5352" y="1104" xmlns="http://www.w3.org/2000/svg"><path d="M256 8C119.043 8 8 119.083 8 256c0 136.997 111.043 248 248 248s248-111.003 248-248C504 119.083 392.957 8 256 8zm0 448c-110.532 0-200-89.431-200-200 0-110.495 89.472-200 200-200 110.491 0 200 89.471 200 200 0 110.53-89.431 200-200 200zm42-104c0 23.159-18.841 42-42 42s-42-18.841-42-42 18.841-42 42-42 42 18.841 42 42zm-81.37-211.401l6.8 136c.319 6.387 5.591 11.401 11.985 11.401h41.17c6.394 0 11.666-5.014 11.985-11.401l6.8-136c.343-6.854-5.122-12.599-11.985-12.599h-54.77c-6.863 0-12.328 5.745-11.985 12.599z"/></svg><view id="exclamation-circle-solid" viewBox="5352 1656 552 552"/><svg viewBox="-20 -20 552 552" width="552" height="552" x="5352" y="1656" xmlns="http://www.w3.org/2000/svg"><path d="M504 256c0 136.997-111.043 248-248 248S8 392.997 8 256C8 119.083 119.043 8 256 8s248 111.083 248 248zm-248 50c-25.405 0-46 20.595-46 46s20.595 46 46 46 46-20.595 46-46-20.595-46-46-46zm-43.673-165.346l7.418 136c.347 6.364 5.609 11.346 11.982 11.346h48.546c6.373 0 11.635-4.982 11.982-11.346l7.418-136c.375-6.874-5.098-12.654-11.982-12.654h-63.383c-6.884 0-12.356 5.78-11.981 12.654z"/></svg><view id="exclamation-square" viewBox="5352 2208 488 552"/><svg viewBox="-20 -20 488 552" width="488" height="552" x="5352" y="2208" xmlns="http://www.w3.org/2000/svg"><path d="M448 80v352c0 26.51-21.49 48-48 48H48c-26.51 0-48-21.49-48-48V80c0-26.51 21.49-48 48-48h352c26.51 0 48 21.49 48 48zm-48 346V86a6 6 0 00-6-6H54a6 6 0 00-6 6v340a6 6 0 006 6h340a6 6 0 006-6zm-134-74c0 23.159-18.841 42-42 42s-42-18.841-42-42 18.841-42 42-42 42 18.841 42 42zm-81.37-211.401l6.8 136c.319 6.387 5.591 11.401 11.985 11.401h41.17c6.394 0 11.666-5.014 11.985-11.401l6.8-136c.343-6.854-5.122-12.599-11.985-12.599h-54.77c-6.863 0-12.328 5.745-11.985 12.599z"/></svg><view id="exclamation-triangle" viewBox="2720 552 616 552"/><svg viewBox="-20 -20 616 552" width="616" height="552" x="2720" y="552" xmlns="http://www.w3.org/2000/svg"><path d="M248.747 204.705l6.588 112c.373 6.343 5.626 11.295 11.979 11.295h41.37a12 12 0 0011.979-11.295l6.588-112c.405-6.893-5.075-12.705-11.979-12.705h-54.547c-6.903 0-12.383 5.812-11.978 12.705zM330 384c0 23.196-18.804 42-42 42s-42-18.804-42-42 18.804-42 42-42 42 18.804 42 42zm-.423-360.015c-18.433-31.951-64.687-32.009-83.154 0L6.477 440.013C-11.945 471.946 11.118 512 48.054 512H527.94c36.865 0 60.035-39.993 41.577-71.987L329.577 23.985zM53.191 455.002L282.803 57.008c2.309-4.002 8.085-4.002 10.394 0l229.612 397.993c2.308 4-.579 8.998-5.197 8.998H58.388c-4.617.001-7.504-4.997-5.197-8.997z"/></svg><view id="exclamation-triangle-red" viewBox="2720 1104 616 552"/><svg viewBox="-20 -20 616 552" fill="#d41b47" width="616" height="552" x="2720" y="1104" xmlns="http://www.w3.org/2000/svg"><path d="M569.517 440.013C587.975 472.007 564.806 512 527.94 512H48.054c-36.937 0-59.999-40.055-41.577-71.987L246.423 23.985c18.467-32.009 64.72-31.951 83.154 0l239.94 416.028zM288 354c-25.405 0-46 20.595-46 46s20.595 46 46 46 46-20.595 46-46-20.595-46-46-46zm-43.673-165.346l7.418 136c.347 6.364 5.609 11.346 11.982 11.346h48.546c6.373 0 11.635-4.982 11.982-11.346l7.418-136c.375-6.874-5.098-12.654-11.982-12.654h-63.383c-6.884 0-12.356 5.78-11.981 12.654z"/></svg><view id="exclamation-triangle-solid" viewBox="2720 1656 616 552"/><svg viewBox="-20 -20 616 552" fill="#ffb31a" width="616" height="552" x="2720" y="1656" xmlns="http://www.w3.org/2000/svg"><path d="M569.517 440.013C587.975 472.007 564.806 512 527.94 512H48.054c-36.937 0-59.999-40.055-41.577-71.987L246.423 23.985c18.467-32.009 64.72-31.951 83.154 0l239.94 416.028zM288 354c-25.405 0-46 20.595-46 46s20.595 46 46 46 46-20.595 46-46-20.595-46-46-46zm-43.673-165.346l7.418 136c.347 6.364 5.609 11.346 11.982 11.346h48.546c6.373 0 11.635-4.982 11.982-11.346l7.418-136c.375-6.874-5.098-12.654-11.982-12.654h-63.383c-6.884 0-12.356 5.78-11.981 12.654z"/></svg><view id="external-link" viewBox="5352 2760 552 552"/><svg viewBox="-20 -20 552 552" fill="#0b5dc6" width="552" height="552" x="5352" y="2760" xmlns="http://www.w3.org/2000/svg"><path d="M497.6 0L334.4.17a14.4 14.4 0 00-14.4 14.4v33.31a14.4 14.4 0 0014.69 14.4l73.63-2.72 2.06 2.06-278.86 278.87a12 12 0 000 17l23 23a12 12 0 0017 0l278.86-278.87 2.06 2.06-2.72 73.63a14.4 14.4 0 0014.4 14.69h33.31a14.4 14.4 0 0014.4-14.4L512 14.4A14.4 14.4 0 00497.6 0zM432 288h-16a16 16 0 00-16 16v154a6 6 0 01-6 6H54a6 6 0 01-6-6V118a6 6 0 016-6h154a16 16 0 0016-16V80a16 16 0 00-16-16H48a48 48 0 00-48 48v352a48 48 0 0048 48h352a48 48 0 0048-48V304a16 16 0 00-16-16z"/></svg><view id="eye" viewBox="0 2208 616 616"/><svg viewBox="-20 -20 616 616" fill="#959595" width="616" height="616" y="2208" xmlns="http://www.w3.org/2000/svg"><path d="M565.4 261.4C509.8 167.1 406.1 104 288 104c-118.2 0-221.9 63.1-277.4 157.4-8.7 14.8-8.7 33.2 0 48.1C66.2 403.8 169.9 466.9 288 466.9c118.2 0 221.9-63.1 277.4-157.4 8.8-14.9 8.8-33.3 0-48.1zM288 419.6c-101.1 0-189.4-53.9-236.7-134.1 43.5-73.9 122-125.5 213.2-133.1 9.7 9.9 15.6 23.5 15.6 38.5 0 30.5-24.7 55.2-55.2 55.2s-55.2-24.7-55.2-55.2c-10.1 18.8-15.8 40.3-15.8 63.2 0 74.1 60 134.1 134.1 134.1s134.1-60 134.1-134.1c0-30.6-10.3-58.8-27.5-81.4 54.8 22.8 100.5 62.7 130.1 112.9-47.3 80-135.6 134-236.7 134z"/></svg><view id="eye-slash" viewBox="0 552 680 552"/><svg viewBox="-20 -20 680 552" fill="#959595" width="680" height="552" y="552" xmlns="http://www.w3.org/2000/svg"><path d="M634 471L36 3.51A16 16 0 0013.51 6l-10 12.49A16 16 0 006 41l598 467.49a16 16 0 0022.49-2.49l10-12.49A16 16 0 00634 471zM296.79 146.47l134.79 105.38C429.36 191.91 380.48 144 320 144a112.26 112.26 0 00-23.21 2.47zm46.42 219.07L208.42 260.16C210.65 320.09 259.53 368 320 368a113 113 0 0023.21-2.46zM320 112c98.65 0 189.09 55 237.93 144a285.53 285.53 0 01-44 60.2l37.74 29.5a333.7 333.7 0 0052.9-75.11 32.35 32.35 0 000-29.19C550.29 135.59 442.93 64 320 64c-36.7 0-71.71 7-104.63 18.81l46.41 36.29c18.94-4.3 38.34-7.1 58.22-7.1zm0 288c-98.65 0-189.08-55-237.93-144a285.47 285.47 0 0144.05-60.19l-37.74-29.5a333.6 333.6 0 00-52.89 75.1 32.35 32.35 0 000 29.19C89.72 376.41 197.08 448 320 448c36.7 0 71.71-7.05 104.63-18.81l-46.41-36.28C359.28 397.2 339.89 400 320 400z"/></svg><view id="file" viewBox="5352 3312 424 552"/><svg viewBox="-20 -20 424 552" fill="#c2c2c2" width="424" height="552" x="5352" y="3312" xmlns="http://www.w3.org/2000/svg"><path d="M369.9 97.9L286 14C277 5 264.8-.1 252.1-.1H48C21.5 0 0 21.5 0 48v416c0 26.5 21.5 48 48 48h288c26.5 0 48-21.5 48-48V131.9c0-12.7-5.1-25-14.1-34zM332.1 128H256V51.9l76.1 76.1zM48 464V48h160v104c0 13.3 10.7 24 24 24h104v288H48z"/></svg><view id="file-check" viewBox="5352 3864 424 552"/><svg viewBox="-20 -20 424 552" fill="#6f82ab" width="424" height="552" x="5352" y="3864" xmlns="http://www.w3.org/2000/svg"><path d="M369.941 97.941l-83.882-83.882A48 48 0 00252.118 0H48C21.49 0 0 21.49 0 48v416c0 26.51 21.49 48 48 48h288c26.51 0 48-21.49 48-48V131.882a48 48 0 00-14.059-33.941zM332.118 128H256V51.882L332.118 128zM48 464V48h160v104c0 13.255 10.745 24 24 24h104v288H48zm261.151-192.661L166.842 412.508c-4.705 4.667-12.303 4.637-16.971-.068l-75.091-75.7c-4.667-4.705-4.637-12.303.068-16.971l22.719-22.536c4.705-4.667 12.303-4.637 16.97.069l44.104 44.461 111.072-110.181c4.705-4.667 12.303-4.637 16.971.068l22.536 22.718c4.667 4.706 4.636 12.303-.069 16.971z"/></svg><view id="file-check-white" viewBox="4864 2208 424 552"/><svg viewBox="-20 -20 424 552" fill="#fff" width="424" height="552" x="4864" y="2208" xmlns="http://www.w3.org/2000/svg"><path d="M369.941 97.941l-83.882-83.882A48 48 0 00252.118 0H48C21.49 0 0 21.49 0 48v416c0 26.51 21.49 48 48 48h288c26.51 0 48-21.49 48-48V131.882a48 48 0 00-14.059-33.941zM332.118 128H256V51.882L332.118 128zM48 464V48h160v104c0 13.255 10.745 24 24 24h104v288H48zm261.151-192.661L166.842 412.508c-4.705 4.667-12.303 4.637-16.971-.068l-75.091-75.7c-4.667-4.705-4.637-12.303.068-16.971l22.719-22.536c4.705-4.667 12.303-4.637 16.97.069l44.104 44.461 111.072-110.181c4.705-4.667 12.303-4.637 16.971.068l22.536 22.718c4.667 4.706 4.636 12.303-.069 16.971z"/></svg><view id="file-medical" viewBox="4864 2760 424 552"/><svg viewBox="-20 -20 424 552" fill="#85bae7" width="424" height="552" x="4864" y="2760" xmlns="http://www.w3.org/2000/svg"><defs><style>.clfa-secondary{opacity:.2}</style></defs><path d="M384 128H272a16 16 0 01-16-16V0H24A23.94 23.94 0 000 23.88V488a23.94 23.94 0 0023.88 24H360a23.94 23.94 0 0024-23.88V128zm-96 216a8 8 0 01-8 8h-56v56a8 8 0 01-8 8h-48a8 8 0 01-8-8v-56h-56a8 8 0 01-8-8v-48a8 8 0 018-8h56v-56a8 8 0 018-8h48a8 8 0 018 8v56h56a8 8 0 018 8z" class="clfa-secondary"/><path d="M377 105L279.1 7a24 24 0 00-17-7H256v112a16 16 0 0016 16h112v-6.1a23.9 23.9 0 00-7-16.9zm-97 183h-56v-56a8 8 0 00-8-8h-48a8 8 0 00-8 8v56h-56a8 8 0 00-8 8v48a8 8 0 008 8h56v56a8 8 0 008 8h48a8 8 0 008-8v-56h56a8 8 0 008-8v-48a8 8 0 00-8-8z" class="clfa-primary"/></svg><view id="file-search" viewBox="680 552 680 552"/><svg viewBox="-20 -20 680 552" fill="#777" width="680" height="552" x="680" y="552" xmlns="http://www.w3.org/2000/svg"><defs><style>.cmfa-secondary{opacity:.4}</style></defs><path d="M300.59 257.71a160.1 160.1 0 0083.41 209v21.45A23.94 23.94 0 01360 512H23.88A23.94 23.94 0 010 488V23.88A23.94 23.94 0 0124 0h232v112a16 16 0 0016 16h112v45.33a160.34 160.34 0 00-83.41 84.38z" class="cmfa-secondary"/><path d="M384 121.9a23.9 23.9 0 00-7-16.9L279.1 7a24 24 0 00-17-7H256v112a16 16 0 0016 16h112zm251.31 340.16l-77.41-77.41A126.65 126.65 0 00576 320a128 128 0 10-128 128c23.7 0 45.61-6.88 64.65-18.11l77.41 77.42a16 16 0 0022.63 0l22.62-22.62a16 16 0 000-22.63zM448 384a64 64 0 1164-64 64 64 0 01-64 64z" class="cmfa-primary"/></svg><view id="file-signature" viewBox="616 2208 616 552"/><svg viewBox="-20 -20 616 552" fill="#fff" width="616" height="552" x="616" y="2208" xmlns="http://www.w3.org/2000/svg"><defs><style>.cnfa-secondary{opacity:.4}</style></defs><path d="M64 400a16 16 0 0016 16h12.39a43.17 43.17 0 0041-29.53L144 354.59l16.83 50.47c4.45 13.46 23.11 14.87 29.48 2.09l7.69-15.34a10.91 10.91 0 0110-6.19 11.08 11.08 0 0110.17 6.52A43 43 0 00256 416h101l27-27.19v99.31A23.94 23.94 0 01360 512H23.88A23.94 23.94 0 010 488V23.88A23.94 23.94 0 0124 0h232v112a16 16 0 0016 16h112v123.67L288 347v37h-32a11.63 11.63 0 01-9.35-6.5c-11.94-23.86-46.25-30.35-66-14.16l-13.88-41.64a24 24 0 00-45.55 0L103 376.34A11.21 11.21 0 0192.39 384H80a16 16 0 00-16 16z" class="cnfa-secondary"/><path d="M384 121.9a23.9 23.9 0 00-7-16.9L279.1 7a24 24 0 00-17-7H256v112a16 16 0 0016 16h112zM288 347v69h69l161.67-162.78-67.88-67.88zm280.56-179.65l-31.87-31.87a25.48 25.48 0 00-36 0l-27.25 27.25 67.88 67.88 27.25-27.25a25.45 25.45 0 00-.01-36.01z" class="cnfa-primary"/></svg><view id="filter" viewBox="0 4940 552 552"/><svg viewBox="-20 -20 552 552" width="552" height="552" y="4940" xmlns="http://www.w3.org/2000/svg"><path d="M463.952 0H48.057C5.419 0-16.094 51.731 14.116 81.941L176 243.882V416c0 15.108 7.113 29.335 19.2 40l64 47.066c31.273 21.855 76.8 1.538 76.8-38.4V243.882L497.893 81.941C528.042 51.792 506.675 0 463.952 0zM288 224v240l-64-48V224L48 48h416L288 224z"/></svg><view id="filter-solid" viewBox="552 4940 552 552"/><svg viewBox="-20 -20 552 552" width="552" height="552" x="552" y="4940" xmlns="http://www.w3.org/2000/svg"><path d="M487.976 0H24.028C2.71 0-8.047 25.866 7.058 40.971L192 225.941V432c0 7.831 3.821 15.17 10.237 19.662l80 55.98C298.02 518.69 320 507.493 320 487.98V225.941l184.947-184.97C520.021 25.896 509.338 0 487.976 0z"/></svg><view id="folders" viewBox="1360 0 680 552"/><svg viewBox="-20 -20 680 552" fill="#888" width="680" height="552" x="1360" xmlns="http://www.w3.org/2000/svg"><defs><style>.cqfa-secondary{opacity:.4}</style></defs><path d="M640 112v224a48 48 0 01-48 48H176a48 48 0 01-48-48V48a48 48 0 0148-48h160l64 64h192a48 48 0 0148 48z" class="cqfa-secondary"/><path d="M48 512a48 48 0 01-48-48V176a48 48 0 0148-48h48v208a80.09 80.09 0 0080 80h336v48a48 48 0 01-48 48z" class="cqfa-primary"/></svg><view id="history" viewBox="1104 4940 552 552"/><svg viewBox="-20 -20 552 552" width="552" height="552" x="1104" y="4940" xmlns="http://www.w3.org/2000/svg"><path d="M504 255.532c.252 136.64-111.182 248.372-247.822 248.468-64.014.045-122.373-24.163-166.394-63.942-5.097-4.606-5.3-12.543-.443-17.4l16.96-16.96c4.529-4.529 11.776-4.659 16.555-.395C158.208 436.843 204.848 456 256 456c110.549 0 200-89.468 200-200 0-110.549-89.468-200-200-200-55.52 0-105.708 22.574-141.923 59.043l49.091 48.413c7.641 7.535 2.305 20.544-8.426 20.544H26.412c-6.627 0-12-5.373-12-12V45.443c0-10.651 12.843-16.023 20.426-8.544l45.097 44.474C124.866 36.067 187.15 8 256 8c136.811 0 247.747 110.781 248 247.532zm-167.058 90.173l14.116-19.409c3.898-5.36 2.713-12.865-2.647-16.763L280 259.778V116c0-6.627-5.373-12-12-12h-24c-6.627 0-12 5.373-12 12v168.222l88.179 64.13c5.36 3.897 12.865 2.712 16.763-2.647z"/></svg><view id="home" viewBox="1232 2208 616 552"/><svg viewBox="-20 -20 616 552" width="616" height="552" x="1232" y="2208" xmlns="http://www.w3.org/2000/svg"><path d="M557.1 240.7L512 203.8V104c0-4.4-3.6-8-8-8h-32c-4.4 0-8 3.6-8 8v60.5L313.4 41.1c-14.7-12.1-36-12.1-50.7 0L18.9 240.7c-3.4 2.8-3.9 7.8-1.1 11.3l20.3 24.8c2.8 3.4 7.8 3.9 11.3 1.1l14.7-12V464c0 8.8 7.2 16 16 16h168c4.4 0 8-3.6 8-8V344h64v128c0 4.4 3.6 8 8 8h168c8.8 0 16-7.2 16-16V265.8l14.7 12c3.4 2.8 8.5 2.3 11.3-1.1l20.3-24.8c2.6-3.4 2.1-8.4-1.3-11.2zM464 432h-96V304c0-4.4-3.6-8-8-8H216c-4.4 0-8 3.6-8 8v128h-96V226.5l170.9-140c2.9-2.4 7.2-2.4 10.1 0l170.9 140V432z"/></svg><view id="info-circle" viewBox="1656 4940 552 552"/><svg viewBox="-20 -20 552 552" fill="#2166BE" width="552" height="552" x="1656" y="4940" xmlns="http://www.w3.org/2000/svg"><path d="M256 8C119.043 8 8 119.083 8 256c0 136.997 111.043 248 248 248s248-111.003 248-248C504 119.083 392.957 8 256 8zm0 448c-110.532 0-200-89.431-200-200 0-110.495 89.472-200 200-200 110.491 0 200 89.471 200 200 0 110.53-89.431 200-200 200zm0-338c23.196 0 42 18.804 42 42s-18.804 42-42 42-42-18.804-42-42 18.804-42 42-42zm56 254c0 6.627-5.373 12-12 12h-88c-6.627 0-12-5.373-12-12v-24c0-6.627 5.373-12 12-12h12v-64h-12c-6.627 0-12-5.373-12-12v-24c0-6.627 5.373-12 12-12h64c6.627 0 12 5.373 12 12v100h12c6.627 0 12 5.373 12 12v24z"/></svg><view id="info-solid" viewBox="4864 3312 232 552"/><svg viewBox="-20 -20 232 552" fill="#202e70" width="232" height="552" x="4864" y="3312" xmlns="http://www.w3.org/2000/svg"><path d="M20 424.229h20V279.771H20c-11.046 0-20-8.954-20-20V212c0-11.046 8.954-20 20-20h112c11.046 0 20 8.954 20 20v212.229h20c11.046 0 20 8.954 20 20V492c0 11.046-8.954 20-20 20H20c-11.046 0-20-8.954-20-20v-47.771c0-11.046 8.954-20 20-20zM96 0C56.235 0 24 32.235 24 72s32.235 72 72 72 72-32.235 72-72S135.764 0 96 0z"/></svg><view id="layer-group-duotone" viewBox="2208 4940 552 552"/><svg viewBox="-20 -20 552 552" fill="#fff" width="552" height="552" x="2208" y="4940" xmlns="http://www.w3.org/2000/svg"><defs><style>.cvfa-secondary{opacity:.4}</style></defs><path d="M12.41 236.31L70.51 210l161.63 73.27a57.64 57.64 0 0047.72 0L441.5 210l58.09 26.33c16.55 7.5 16.55 32.5 0 40L266.64 381.9a25.68 25.68 0 01-21.29 0L12.41 276.31c-16.55-7.5-16.55-32.5 0-40z" class="cvfa-secondary"/><path d="M12.41 148l232.94 105.7a25.61 25.61 0 0021.29 0L499.58 148c16.55-7.51 16.55-32.52 0-40L266.65 2.32a25.61 25.61 0 00-21.29 0L12.41 108c-16.55 7.5-16.55 32.52 0 40zm487.18 216.11l-57.87-26.23-161.86 73.37a57.64 57.64 0 01-47.72 0L70.29 337.88l-57.88 26.23c-16.55 7.5-16.55 32.5 0 40L245.35 509.7a25.68 25.68 0 0021.29 0l233-105.59c16.5-7.5 16.5-32.5-.05-40z" class="cvfa-primary"/></svg><view id="list" viewBox="2760 4940 552 552"/><svg viewBox="-20 -20 552 552" width="552" height="552" x="2760" y="4940" xmlns="http://www.w3.org/2000/svg"><path d="M80 48H16A16 16 0 000 64v64a16 16 0 0016 16h64a16 16 0 0016-16V64a16 16 0 00-16-16zm0 160H16a16 16 0 00-16 16v64a16 16 0 0016 16h64a16 16 0 0016-16v-64a16 16 0 00-16-16zm0 160H16a16 16 0 00-16 16v64a16 16 0 0016 16h64a16 16 0 0016-16v-64a16 16 0 00-16-16zm416-136H176a16 16 0 00-16 16v16a16 16 0 0016 16h320a16 16 0 0016-16v-16a16 16 0 00-16-16zm0 160H176a16 16 0 00-16 16v16a16 16 0 0016 16h320a16 16 0 0016-16v-16a16 16 0 00-16-16zm0-320H176a16 16 0 00-16 16v16a16 16 0 0016 16h320a16 16 0 0016-16V88a16 16 0 00-16-16z"/></svg><view id="list-white" viewBox="3312 4940 552 552"/><svg viewBox="-20 -20 552 552" fill="#fff" width="552" height="552" x="3312" y="4940" xmlns="http://www.w3.org/2000/svg"><path d="M80 48H16A16 16 0 000 64v64a16 16 0 0016 16h64a16 16 0 0016-16V64a16 16 0 00-16-16zm0 160H16a16 16 0 00-16 16v64a16 16 0 0016 16h64a16 16 0 0016-16v-64a16 16 0 00-16-16zm0 160H16a16 16 0 00-16 16v64a16 16 0 0016 16h64a16 16 0 0016-16v-64a16 16 0 00-16-16zm416-136H176a16 16 0 00-16 16v16a16 16 0 0016 16h320a16 16 0 0016-16v-16a16 16 0 00-16-16zm0 160H176a16 16 0 00-16 16v16a16 16 0 0016 16h320a16 16 0 0016-16v-16a16 16 0 00-16-16zm0-320H176a16 16 0 00-16 16v16a16 16 0 0016 16h320a16 16 0 0016-16V88a16 16 0 00-16-16z"/></svg><view id="lock" viewBox="3864 4940 488 552"/><svg viewBox="-20 -20 488 552" fill="#898D9F" width="488" height="552" x="3864" y="4940" xmlns="http://www.w3.org/2000/svg"><defs><style>.cyfa-secondary{opacity:.4}</style></defs><path d="M152 224H72v-72C72 68.2 140.2 0 224 0s152 68.2 152 152v72h-80v-72a72 72 0 00-144 0z" class="cyfa-secondary"/><path d="M448 272v192a48 48 0 01-48 48H48a48 48 0 01-48-48V272a48 48 0 0148-48h352a48 48 0 0148 48z" class="cyfa-primary"/></svg><view id="lock-open" viewBox="1848 2208 616 552"/><svg viewBox="-20 -20 616 552" fill="#898D9F" width="616" height="552" x="1848" y="2208" xmlns="http://www.w3.org/2000/svg"><defs><style>.czfa-secondary{opacity:.4}</style></defs><path d="M576 152v80a23.94 23.94 0 01-24 24h-32a23.94 23.94 0 01-24-24v-80a72.11 72.11 0 00-72.7-72c-39.6.4-71.3 33.3-71.3 72.9V224h-80v-70.5C272 69.5 339.5.3 423.5 0S576 68 576 152z" class="czfa-secondary"/><path d="M400 224H48a48 48 0 00-48 48v192a48 48 0 0048 48h352a48 48 0 0048-48V272a48 48 0 00-48-48zM264 392a40 40 0 01-80 0v-48a40 40 0 0180 0z" class="czfa-primary"/></svg><view id="megaphone" viewBox="2464 2208 616 552"/><svg viewBox="-20 -20 616 552" width="616" height="552" x="2464" y="2208" xmlns="http://www.w3.org/2000/svg"><path d="M560 32h-16c-8.84 0-16 7.16-16 16v12.94L47.28 172.41C45.61 165.36 39.56 160 32 160H16c-8.84 0-16 7.16-16 16v160c0 8.84 7.16 16 16 16h16c7.56 0 13.61-5.36 15.28-12.41l115.01 26.67c-1.17 5.78-2.28 11.6-2.28 17.74 0 53.02 42.98 96 96 96 44.19 0 80.99-29.99 92.08-70.66L528 451.06V464c0 8.84 7.16 16 16 16h16c8.84 0 16-7.16 16-16V48c0-8.84-7.16-16-16-16zM256 432c-26.47 0-48-21.53-48-48 0-2.42.9-4.54 1.25-6.85l92.25 21.39C295.3 417.87 277.37 432 256 432zM48 290.5v-69l480-111.31V401.8L48 290.5z"/></svg><view id="minus" viewBox="4352 4940 424 552"/><svg viewBox="-20 -20 424 552" fill="#666" width="424" height="552" x="4352" y="4940" xmlns="http://www.w3.org/2000/svg"><path d="M368 224H16c-8.84 0-16 7.16-16 16v32c0 8.84 7.16 16 16 16h352c8.84 0 16-7.16 16-16v-32c0-8.84-7.16-16-16-16z"/></svg><view id="moon-stars" viewBox="4776 4940 552 552"/><svg viewBox="-20 -20 552 552" fill="#666" width="552" height="552" x="4776" y="4940" xmlns="http://www.w3.org/2000/svg"><defs><style>.dcfa-secondary{opacity:.4}</style></defs><path d="M320 32L304 0l-16 32-32 16 32 16 16 32 16-32 32-16zm138.7 149.3L432 128l-26.7 53.3L352 208l53.3 26.7L432 288l26.7-53.3L512 208z" class="dcfa-secondary"/><path d="M332.2 426.4c8.1-1.6 13.9 8 8.6 14.5a191.18 191.18 0 01-149 71.1C85.8 512 0 426 0 320c0-120 108.7-210.6 227-188.8 8.2 1.6 10.1 12.6 2.8 16.7a150.3 150.3 0 00-76.1 130.8c0 94 85.4 165.4 178.5 147.7z" class="dcfa-primary"/></svg><view id="paperclip" viewBox="5328 4940 488 552"/><svg viewBox="-20 -20 488 552" width="488" height="552" x="5328" y="4940" xmlns="http://www.w3.org/2000/svg"><defs><style>.ddfa-secondary{opacity:.4}</style></defs><path d="M171.43 319.93c-4.94 5-5.24 13.43-.65 18.29a10.66 10.66 0 0015.69.16l182.85-186.85a52.37 52.37 0 000-72.79 48 48 0 00-69.15 0L90.39 293.3c-34.76 35.56-35.3 93.12-1.19 128.31a85.28 85.28 0 00123.06.28l172.06-176a16 16 0 0122.62-.26L429.82 268a16 16 0 01.26 22.63L258 466.63a149.21 149.21 0 01-214.77-.49c-58.43-60.29-57.35-157.51 1.38-217.58L254.39 34a111.9 111.9 0 01160.67 0c43.89 44.89 43.95 117.33 0 162.28L232.21 383.13a74.61 74.61 0 01-108-1c-28.27-30-27.37-77.47 1.45-106.95l143.77-146.84a16 16 0 0122.62-.24l22.86 22.38a16 16 0 01.24 22.63z" class="ddfa-secondary"/></svg><view id="phone-rotary" viewBox="5904 0 552 552"/><svg viewBox="-20 -20 552 552" fill="#666" width="552" height="552" x="5904" xmlns="http://www.w3.org/2000/svg"><defs><style>.defa-secondary{opacity:.4}</style></defs><path d="M256 240a72 72 0 1072 72 72 72 0 00-72-72zm250.18-117C436.76 65 347.38 32 256 32S75.24 65 5.82 123A16.45 16.45 0 000 135.64V192a16 16 0 0016 16h70.11a16 16 0 0014.31-8.85L128 128c39.9-17.28 83.2-24 128-24 44.77 0 88.07 6.72 128 24l27.58 71.15a16 16 0 0014.31 8.85H496a16 16 0 0016-16v-56.36a16.45 16.45 0 00-5.82-12.64z" class="defa-secondary"/><path d="M475.78 376.62L370.43 192.25A64 64 0 00314.86 160H197.14a64 64 0 00-55.57 32.25L36.22 376.62A32 32 0 0032 392.5V448a32 32 0 0032 32h384a32 32 0 0032-32v-55.5a32 32 0 00-4.22-15.88zM256 384a72 72 0 1172-72 72 72 0 01-72 72z" class="defa-primary"/></svg><view id="phone-solid-white" viewBox="5904 552 552 552"/><svg viewBox="-20 -20 552 552" fill="#fff" width="552" height="552" x="5904" y="552" xmlns="http://www.w3.org/2000/svg"><path d="M493.4 24.6l-104-24c-11.3-2.6-22.9 3.3-27.5 13.9l-48 112c-4.2 9.8-1.4 21.3 6.9 28l60.6 49.6c-36 76.7-98.9 140.5-177.2 177.2l-49.6-60.6c-6.8-8.3-18.2-11.1-28-6.9l-112 48C3.9 366.5-2 378.1.6 389.4l24 104C27.1 504.2 36.7 512 48 512c256.1 0 464-207.5 464-464 0-11.2-7.7-20.9-18.6-23.4z"/></svg><view id="plus" viewBox="5904 1104 488 552"/><svg viewBox="-20 -20 488 552" fill="#666" width="488" height="552" x="5904" y="1104" xmlns="http://www.w3.org/2000/svg"><path d="M436 228H252V44c0-6.6-5.4-12-12-12h-32c-6.6 0-12 5.4-12 12v184H12c-6.6 0-12 5.4-12 12v32c0 6.6 5.4 12 12 12h184v184c0 6.6 5.4 12 12 12h32c6.6 0 12-5.4 12-12V284h184c6.6 0 12-5.4 12-12v-32c0-6.6-5.4-12-12-12z"/></svg><view id="project-diagram" viewBox="1360 552 680 552"/><svg viewBox="-20 -20 680 552" fill="#6f82ab" width="680" height="552" x="1360" y="552" xmlns="http://www.w3.org/2000/svg"><path d="M384 320H256c-17.67 0-32 14.33-32 32v128c0 17.67 14.33 32 32 32h128c17.67 0 32-14.33 32-32V352c0-17.67-14.33-32-32-32zM192 32c0-17.67-14.33-32-32-32H32C14.33 0 0 14.33 0 32v128c0 17.67 14.33 32 32 32h95.72l73.16 128.04C211.98 300.98 232.4 288 256 288h.28L192 175.51V128h224V64H192V32zM608 0H480c-17.67 0-32 14.33-32 32v128c0 17.67 14.33 32 32 32h128c17.67 0 32-14.33 32-32V32c0-17.67-14.33-32-32-32z"/></svg><view id="project-diagram-white" viewBox="0 1104 680 552"/><svg viewBox="-20 -20 680 552" fill="#fff" width="680" height="552" y="1104" xmlns="http://www.w3.org/2000/svg"><path d="M384 320H256c-17.67 0-32 14.33-32 32v128c0 17.67 14.33 32 32 32h128c17.67 0 32-14.33 32-32V352c0-17.67-14.33-32-32-32zM192 32c0-17.67-14.33-32-32-32H32C14.33 0 0 14.33 0 32v128c0 17.67 14.33 32 32 32h95.72l73.16 128.04C211.98 300.98 232.4 288 256 288h.28L192 175.51V128h224V64H192V32zM608 0H480c-17.67 0-32 14.33-32 32v128c0 17.67 14.33 32 32 32h128c17.67 0 32-14.33 32-32V32c0-17.67-14.33-32-32-32z"/></svg><view id="project-user" viewBox="0 6044 508 452"/><svg viewBox="-20 -20 508 452" fill="#666" width="508" height="452" y="6044" xmlns="http://www.w3.org/2000/svg"><path d="M226.47 193.015h-75.49c-10.42 0-18.872 8.643-18.872 19.301v77.206c0 10.658 8.451 19.302 18.872 19.302h75.49c10.422 0 18.873-8.644 18.873-19.302v-77.206c0-10.658-8.451-19.301-18.872-19.301zM113.236 19.3C113.235 8.643 104.784 0 94.363 0h-75.49C8.45 0 0 8.643 0 19.301v77.206c0 10.658 8.451 19.302 18.873 19.302h56.452l43.147 77.23c6.547-11.497 18.59-19.326 32.508-19.326h.166l-37.91-67.85V77.206h132.107V38.603H113.235V19.3zM358.578 0C369 0 377.451 8.643 377.451 19.301v77.206c0 10.658-8.451 19.302-18.873 19.302h-75.49c-10.421 0-18.872-8.644-18.872-19.302V19.301C264.216 8.643 272.667 0 283.088 0h75.49zm39.007 299.875c38.705 0 70.107 32.452 70.107 72.45v13.8c0 14.285-11.215 25.875-25.038 25.875H259.038C245.215 412 234 400.41 234 386.125v-13.8c0-39.998 31.402-72.45 70.108-72.45 15.023 0 22.17 8.625 46.738 8.625 24.57 0 31.768-8.625 46.739-8.625zm-46.739-8.625c-41.47 0-75.115-34.77-75.115-77.625S309.376 136 350.846 136c41.47 0 75.116 34.77 75.116 77.625s-33.646 77.625-75.116 77.625z"/></svg><view id="question-circle" viewBox="5904 1656 552 552"/><svg viewBox="-20 -20 552 552" width="552" height="552" x="5904" y="1656" xmlns="http://www.w3.org/2000/svg"><path d="M256 8C119.043 8 8 119.083 8 256c0 136.997 111.043 248 248 248s248-111.003 248-248C504 119.083 392.957 8 256 8zm0 448c-110.532 0-200-89.431-200-200 0-110.495 89.472-200 200-200 110.491 0 200 89.471 200 200 0 110.53-89.431 200-200 200zm107.244-255.2c0 67.052-72.421 68.084-72.421 92.863V300c0 6.627-5.373 12-12 12h-45.647c-6.627 0-12-5.373-12-12v-8.659c0-35.745 27.1-50.034 47.579-61.516 17.561-9.845 28.324-16.541 28.324-29.579 0-17.246-21.999-28.693-39.784-28.693-23.189 0-33.894 10.977-48.942 29.969-4.057 5.12-11.46 6.071-16.666 2.124l-27.824-21.098c-5.107-3.872-6.251-11.066-2.644-16.363C184.846 131.491 214.94 112 261.794 112c49.071 0 101.45 38.304 101.45 88.8zM298 368c0 23.159-18.841 42-42 42s-42-18.841-42-42 18.841-42 42-42 42 18.841 42 42z"/></svg><view id="question-square" viewBox="5904 2208 488 552"/><svg viewBox="-20 -20 488 552" width="488" height="552" x="5904" y="2208" xmlns="http://www.w3.org/2000/svg"><path d="M448 80v352c0 26.51-21.49 48-48 48H48c-26.51 0-48-21.49-48-48V80c0-26.51 21.49-48 48-48h352c26.51 0 48 21.49 48 48zm-48 346V86a6 6 0 00-6-6H54a6 6 0 00-6 6v340a6 6 0 006 6h340a6 6 0 006-6zm-68.756-225.2c0 67.052-72.421 68.084-72.421 92.863V300c0 6.627-5.373 12-12 12h-45.647c-6.627 0-12-5.373-12-12v-8.659c0-35.745 27.1-50.034 47.579-61.516 17.561-9.845 28.324-16.541 28.324-29.579 0-17.246-21.999-28.693-39.784-28.693-23.189 0-33.894 10.977-48.942 29.969-4.057 5.12-11.46 6.071-16.666 2.124l-27.824-21.098c-5.107-3.872-6.251-11.066-2.644-16.363C152.846 131.491 182.94 112 229.794 112c49.071 0 101.45 38.304 101.45 88.8zM266 368c0 23.159-18.841 42-42 42s-42-18.841-42-42 18.841-42 42-42 42 18.841 42 42z"/></svg><view id="redo-alt" viewBox="5904 2760 552 552"/><svg viewBox="-20 -20 552 552" width="552" height="552" x="5904" y="2760" xmlns="http://www.w3.org/2000/svg"><path d="M256.455 8c66.269.119 126.437 26.233 170.859 68.685l35.715-35.715C478.149 25.851 504 36.559 504 57.941V192c0 13.255-10.745 24-24 24H345.941c-21.382 0-32.09-25.851-16.971-40.971l41.75-41.75c-30.864-28.899-70.801-44.907-113.23-45.273-92.398-.798-170.283 73.977-169.484 169.442C88.764 348.009 162.184 424 256 424c41.127 0 79.997-14.678 110.629-41.556 4.743-4.161 11.906-3.908 16.368.553l39.662 39.662c4.872 4.872 4.631 12.815-.482 17.433C378.202 479.813 319.926 504 256 504 119.034 504 8.001 392.967 8 256.002 7.999 119.193 119.646 7.755 256.455 8z"/></svg><view id="save" viewBox="5904 3312 488 552"/><svg viewBox="-20 -20 488 552" width="488" height="552" x="5904" y="3312" xmlns="http://www.w3.org/2000/svg"><path d="M433.941 129.941l-83.882-83.882A48 48 0 00316.118 32H48C21.49 32 0 53.49 0 80v352c0 26.51 21.49 48 48 48h352c26.51 0 48-21.49 48-48V163.882a48 48 0 00-14.059-33.941zM272 80v80H144V80h128zm122 352H54a6 6 0 01-6-6V86a6 6 0 016-6h42v104c0 13.255 10.745 24 24 24h176c13.255 0 24-10.745 24-24V83.882l78.243 78.243a6 6 0 011.757 4.243V426a6 6 0 01-6 6zM224 232c-48.523 0-88 39.477-88 88s39.477 88 88 88 88-39.477 88-88-39.477-88-88-88zm0 128c-22.056 0-40-17.944-40-40s17.944-40 40-40 40 17.944 40 40-17.944 40-40 40z"/></svg><view id="save-solid" viewBox="5904 3864 488 552"/><svg viewBox="-20 -20 488 552" width="488" height="552" x="5904" y="3864" xmlns="http://www.w3.org/2000/svg"><path d="M433.941 129.941l-83.882-83.882A48 48 0 00316.118 32H48C21.49 32 0 53.49 0 80v352c0 26.51 21.49 48 48 48h352c26.51 0 48-21.49 48-48V163.882a48 48 0 00-14.059-33.941zM224 416c-35.346 0-64-28.654-64-64 0-35.346 28.654-64 64-64s64 28.654 64 64c0 35.346-28.654 64-64 64zm96-304.52V212c0 6.627-5.373 12-12 12H76c-6.627 0-12-5.373-12-12V108c0-6.627 5.373-12 12-12h228.52c3.183 0 6.235 1.264 8.485 3.515l3.48 3.48A11.996 11.996 0 01320 111.48z"/></svg><view id="search" viewBox="6456 4416 540 540"/><svg viewBox="-20 -20 540 540" fill="#2d4985" width="540" height="540" x="6456" y="4416" xmlns="http://www.w3.org/2000/svg"><path d="M157.653 102.806c-25.51 12.143-45.663 33.061-56.888 58.98-3.214 7.5.255 16.224 7.704 19.438a14.757 14.757 0 005.868 1.225c5.714 0 11.173-3.316 13.571-8.929 8.368-19.336 23.47-34.949 42.5-44.081 7.398-3.52 10.51-12.347 6.99-19.694-3.52-7.296-12.347-10.46-19.745-6.939zM309.337 193.214c-8.164 0-14.796 6.582-14.796 14.796 0 47.908-38.98 86.888-86.888 86.888-8.163 0-14.796 6.582-14.796 14.796 0 8.163 6.582 14.796 14.796 14.796 31.071 0 60.306-12.092 82.296-34.082 21.99-21.99 34.083-51.224 34.083-82.296a14.648 14.648 0 00-14.695-14.898z"/><path d="M487.347 425.765L383.418 322.194c-1.428-1.429-3.06-2.551-4.591-3.725 21.02-32.296 33.316-70.765 33.316-112.193C412.143 92.449 319.898.204 206.07.204 92.296.204 0 92.45 0 206.276c0 113.826 92.296 206.07 206.071 206.07 41.429 0 79.898-12.295 112.245-33.366 1.174 1.581 2.245 3.112 3.674 4.54l103.928 103.572c8.52 8.47 19.592 12.704 30.664 12.704 11.122 0 22.194-4.235 30.663-12.704 16.99-16.939 16.99-44.388.102-61.327M206.07 359.541c-84.49 0-153.265-68.776-153.265-153.265 0-84.49 68.776-153.266 153.265-153.266 84.49 0 153.215 68.776 153.215 153.266.05 84.49-68.725 153.265-153.215 153.265"/></svg><view id="search-white" viewBox="6456 4956 540 540"/><svg viewBox="-20 -20 540 540" fill="#fff" width="540" height="540" x="6456" y="4956" xmlns="http://www.w3.org/2000/svg"><path d="M157.653 102.806c-25.51 12.143-45.663 33.061-56.888 58.98-3.214 7.5.255 16.224 7.704 19.438a14.757 14.757 0 005.868 1.225c5.714 0 11.173-3.316 13.571-8.929 8.368-19.336 23.47-34.949 42.5-44.081 7.398-3.52 10.51-12.347 6.99-19.694-3.52-7.296-12.347-10.46-19.745-6.939zM309.337 193.214c-8.164 0-14.796 6.582-14.796 14.796 0 47.908-38.98 86.888-86.888 86.888-8.163 0-14.796 6.582-14.796 14.796 0 8.163 6.582 14.796 14.796 14.796 31.071 0 60.306-12.092 82.296-34.082 21.99-21.99 34.083-51.224 34.083-82.296a14.648 14.648 0 00-14.695-14.898z"/><path d="M487.347 425.765L383.418 322.194c-1.428-1.429-3.06-2.551-4.591-3.725 21.02-32.296 33.316-70.765 33.316-112.193C412.143 92.449 319.898.204 206.07.204 92.296.204 0 92.45 0 206.276c0 113.826 92.296 206.07 206.071 206.07 41.429 0 79.898-12.295 112.245-33.366 1.174 1.581 2.245 3.112 3.674 4.54l103.928 103.572c8.52 8.47 19.592 12.704 30.664 12.704 11.122 0 22.194-4.235 30.663-12.704 16.99-16.939 16.99-44.388.102-61.327M206.07 359.541c-84.49 0-153.265-68.776-153.265-153.265 0-84.49 68.776-153.266 153.265-153.266 84.49 0 153.215 68.776 153.215 153.266.05 84.49-68.725 153.265-153.215 153.265"/></svg><view id="share-alt" viewBox="5904 4416 488 552"/><svg viewBox="-20 -20 488 552" width="488" height="552" x="5904" y="4416" xmlns="http://www.w3.org/2000/svg"><path d="M448 416c0 53.019-42.981 96-96 96s-96-42.981-96-96a95.942 95.942 0 014.438-28.924l-98.337-61.46C144.887 341.966 121.616 352 96 352c-53.019 0-96-42.981-96-96s42.981-96 96-96c25.616 0 48.887 10.034 66.101 26.385l98.337-61.461A95.942 95.942 0 01256 96c0-53.019 42.981-96 96-96s96 42.981 96 96-42.981 96-96 96c-25.616 0-48.887-10.034-66.101-26.385l-98.337 61.461c5.917 18.75 5.922 39.083 0 57.848l98.337 61.461C303.113 330.034 326.384 320 352 320c53.019 0 96 42.981 96 96zM352 48c-26.467 0-48 21.533-48 48s21.533 48 48 48 48-21.533 48-48-21.533-48-48-48M96 208c-26.467 0-48 21.533-48 48s21.533 48 48 48 48-21.533 48-48-21.533-48-48-48m256 160c-26.467 0-48 21.533-48 48s21.533 48 48 48 48-21.533 48-48-21.533-48-48-48"/></svg><view id="sign-out-alt" viewBox="0 5492 552 552"/><svg viewBox="-20 -20 552 552" width="552" height="552" y="5492" xmlns="http://www.w3.org/2000/svg"><path d="M272 112v51.6h-96c-26.5 0-48 21.5-48 48v88.6c0 26.5 21.5 48 48 48h96v51.6c0 42.6 51.7 64.2 81.9 33.9l144-143.9c18.7-18.7 18.7-49.1 0-67.9l-144-144C323.8 48 272 69.3 272 112zm192 144L320 400v-99.7H176v-88.6h144V112l144 144zM96 64h84c6.6 0 12 5.4 12 12v24c0 6.6-5.4 12-12 12H96c-26.5 0-48 21.5-48 48v192c0 26.5 21.5 48 48 48h84c6.6 0 12 5.4 12 12v24c0 6.6-5.4 12-12 12H96c-53 0-96-43-96-96V160c0-53 43-96 96-96z"/></svg><view id="smile-plus" viewBox="680 1104 680 552"/><svg viewBox="-20 -20 680 552" fill="#6f82ab" width="680" height="552" x="680" y="1104" xmlns="http://www.w3.org/2000/svg"><path d="M208 96C93.1 96 0 189.1 0 304s93.1 208 208 208 208-93.1 208-208S322.9 96 208 96zm0 368c-88.2 0-160-71.8-160-160s71.8-160 160-160 160 71.8 160 160-71.8 160-160 160zm61.8-124.2c-30.6 35.8-92.9 35.8-123.5 0-8.7-10.1-23.8-11.2-33.8-2.7-10.1 8.6-11.2 23.8-2.7 33.8 24.4 28.6 60.2 45 98.2 45s73.8-16.4 98.2-45c8.6-10.1 7.4-25.2-2.7-33.8-10-8.5-25.1-7.4-33.7 2.7zM144 288c17.7 0 32-14.3 32-32s-14.3-32-32-32-32 14.3-32 32 14.3 32 32 32zm128 0c17.7 0 32-14.3 32-32s-14.3-32-32-32-32 14.3-32 32 14.3 32 32 32zM624 88h-72V16c0-8.8-7.2-16-16-16h-16c-8.8 0-16 7.2-16 16v72h-72c-8.8 0-16 7.2-16 16v16c0 8.8 7.2 16 16 16h72v72c0 8.8 7.2 16 16 16h16c8.8 0 16-7.2 16-16v-72h72c8.8 0 16-7.2 16-16v-16c0-8.8-7.2-16-16-16z"/></svg><view id="smile-plus-white" viewBox="1360 1104 680 552"/><svg viewBox="-20 -20 680 552" fill="#fff" width="680" height="552" x="1360" y="1104" xmlns="http://www.w3.org/2000/svg"><path d="M208 96C93.1 96 0 189.1 0 304s93.1 208 208 208 208-93.1 208-208S322.9 96 208 96zm0 368c-88.2 0-160-71.8-160-160s71.8-160 160-160 160 71.8 160 160-71.8 160-160 160zm61.8-124.2c-30.6 35.8-92.9 35.8-123.5 0-8.7-10.1-23.8-11.2-33.8-2.7-10.1 8.6-11.2 23.8-2.7 33.8 24.4 28.6 60.2 45 98.2 45s73.8-16.4 98.2-45c8.6-10.1 7.4-25.2-2.7-33.8-10-8.5-25.1-7.4-33.7 2.7zM144 288c17.7 0 32-14.3 32-32s-14.3-32-32-32-32 14.3-32 32 14.3 32 32 32zm128 0c17.7 0 32-14.3 32-32s-14.3-32-32-32-32 14.3-32 32 14.3 32 32 32zM624 88h-72V16c0-8.8-7.2-16-16-16h-16c-8.8 0-16 7.2-16 16v72h-72c-8.8 0-16 7.2-16 16v16c0 8.8 7.2 16 16 16h72v72c0 8.8 7.2 16 16 16h16c8.8 0 16-7.2 16-16v-72h72c8.8 0 16-7.2 16-16v-16c0-8.8-7.2-16-16-16z"/></svg><view id="smile-wink" viewBox="552 5492 536 552"/><svg viewBox="-20 -20 536 552" fill="#6f82ab" width="536" height="552" x="552" y="5492" xmlns="http://www.w3.org/2000/svg"><path d="M248 8C111 8 0 119 0 256s111 248 248 248 248-111 248-248S385 8 248 8zm0 448c-110.3 0-200-89.7-200-200S137.7 56 248 56s200 89.7 200 200-89.7 200-200 200zm117.8-146.4c-10.2-8.5-25.3-7.1-33.8 3.1-20.8 25-51.5 39.4-84 39.4s-63.2-14.3-84-39.4c-8.5-10.2-23.7-11.5-33.8-3.1-10.2 8.5-11.5 23.6-3.1 33.8 30 36 74.1 56.6 120.9 56.6s90.9-20.6 120.9-56.6c8.5-10.2 7.1-25.3-3.1-33.8zM168 240c17.7 0 32-14.3 32-32s-14.3-32-32-32-32 14.3-32 32 14.3 32 32 32zm160-60c-25.7 0-55.9 16.9-59.9 42.1-1.7 11.2 11.5 18.2 19.8 10.8l9.5-8.5c14.8-13.2 46.2-13.2 61 0l9.5 8.5c8.5 7.4 21.6.3 19.8-10.8-3.8-25.2-34-42.1-59.7-42.1z"/></svg><view id="smile-wink-white" viewBox="1088 5492 536 552"/><svg viewBox="-20 -20 536 552" fill="#fff" width="536" height="552" x="1088" y="5492" xmlns="http://www.w3.org/2000/svg"><path d="M248 8C111 8 0 119 0 256s111 248 248 248 248-111 248-248S385 8 248 8zm0 448c-110.3 0-200-89.7-200-200S137.7 56 248 56s200 89.7 200 200-89.7 200-200 200zm117.8-146.4c-10.2-8.5-25.3-7.1-33.8 3.1-20.8 25-51.5 39.4-84 39.4s-63.2-14.3-84-39.4c-8.5-10.2-23.7-11.5-33.8-3.1-10.2 8.5-11.5 23.6-3.1 33.8 30 36 74.1 56.6 120.9 56.6s90.9-20.6 120.9-56.6c8.5-10.2 7.1-25.3-3.1-33.8zM168 240c17.7 0 32-14.3 32-32s-14.3-32-32-32-32 14.3-32 32 14.3 32 32 32zm160-60c-25.7 0-55.9 16.9-59.9 42.1-1.7 11.2 11.5 18.2 19.8 10.8l9.5-8.5c14.8-13.2 46.2-13.2 61 0l9.5 8.5c8.5 7.4 21.6.3 19.8-10.8-3.8-25.2-34-42.1-59.7-42.1z"/></svg><view id="star" viewBox="3336 0 616 552"/><svg viewBox="-20 -20 616 552" width="616" height="552" x="3336" xmlns="http://www.w3.org/2000/svg"><path d="M528.1 171.5L382 150.2 316.7 17.8c-11.7-23.6-45.6-23.9-57.4 0L194 150.2 47.9 171.5c-26.2 3.8-36.7 36.1-17.7 54.6l105.7 103-25 145.5c-4.5 26.3 23.2 46 46.4 33.7L288 439.6l130.7 68.7c23.2 12.2 50.9-7.4 46.4-33.7l-25-145.5 105.7-103c19-18.5 8.5-50.8-17.7-54.6zM388.6 312.3l23.7 138.4L288 385.4l-124.3 65.3 23.7-138.4-100.6-98 139-20.2 62.2-126 62.2 126 139 20.2-100.6 98z"/></svg><view id="stopwatch" viewBox="1624 5492 488 552"/><svg viewBox="-20 -20 488 552" fill="#6f82ab" width="488" height="552" x="1624" y="5492" xmlns="http://www.w3.org/2000/svg"><path d="M393.9 184l22.6-22.6c4.7-4.7 4.7-12.3 0-17l-17-17c-4.7-4.7-12.3-4.7-17 0l-20.7 20.7c-31.1-27.5-70.4-45.9-113.8-50.8V48h28c6.6 0 12-5.4 12-12V12c0-6.6-5.4-12-12-12H172c-6.6 0-12 5.4-12 12v24c0 6.6 5.4 12 12 12h28v49.4C96.4 109.3 16 197.2 16 304c0 114.9 93.1 208 208 208s208-93.1 208-208c0-44.7-14.1-86.1-38.1-120zM224 464c-88.4 0-160-71.6-160-160s71.6-160 160-160 160 71.6 160 160-71.6 160-160 160zm12-112h-24c-6.6 0-12-5.4-12-12V204c0-6.6 5.4-12 12-12h24c6.6 0 12 5.4 12 12v136c0 6.6-5.4 12-12 12z"/></svg><view id="stopwatch-white" viewBox="2112 5492 488 552"/><svg viewBox="-20 -20 488 552" fill="#fff" width="488" height="552" x="2112" y="5492" xmlns="http://www.w3.org/2000/svg"><path d="M393.9 184l22.6-22.6c4.7-4.7 4.7-12.3 0-17l-17-17c-4.7-4.7-12.3-4.7-17 0l-20.7 20.7c-31.1-27.5-70.4-45.9-113.8-50.8V48h28c6.6 0 12-5.4 12-12V12c0-6.6-5.4-12-12-12H172c-6.6 0-12 5.4-12 12v24c0 6.6 5.4 12 12 12h28v49.4C96.4 109.3 16 197.2 16 304c0 114.9 93.1 208 208 208s208-93.1 208-208c0-44.7-14.1-86.1-38.1-120zM224 464c-88.4 0-160-71.6-160-160s71.6-160 160-160 160 71.6 160 160-71.6 160-160 160zm12-112h-24c-6.6 0-12-5.4-12-12V204c0-6.6 5.4-12 12-12h24c6.6 0 12 5.4 12 12v136c0 6.6-5.4 12-12 12z"/></svg><view id="table" viewBox="2600 5492 552 552"/><svg viewBox="-20 -20 552 552" width="552" height="552" x="2600" y="5492" xmlns="http://www.w3.org/2000/svg"><path d="M464 32H48C21.49 32 0 53.49 0 80v352c0 26.51 21.49 48 48 48h416c26.51 0 48-21.49 48-48V80c0-26.51-21.49-48-48-48zM232 432H54a6 6 0 01-6-6V296h184v136zm0-184H48V112h184v136zm226 184H280V296h184v130a6 6 0 01-6 6zm6-184H280V112h184v136z"/></svg><view id="tasks" viewBox="3152 5492 552 552"/><svg viewBox="-20 -20 552 552" fill="#6f82ab" width="552" height="552" x="3152" y="5492" xmlns="http://www.w3.org/2000/svg"><path d="M512 128V96c0-6.6-5.4-12-12-12H204c-6.6 0-12 5.5-12 12.2V128c0 6.6 5.4 12 12 12h296c6.6 0 12-5.4 12-12zm0 160v-32c0-6.6-5.4-12-12-12H204c-6.6 0-12 5.4-12 12v32c0 6.6 5.4 12 12 12h296c6.6 0 12-5.4 12-12zm0 160v-32c0-6.6-5.4-12-12-12H204c-6.6 0-12 5.4-12 12v32c0 6.6 5.4 12 12 12h296c6.6 0 12-5.4 12-12zM162.1 64.8l-92 91.8c-4.7 4.7-12.3 4.7-17 0l-12.4-12.4-37.2-37.5c-4.7-4.7-4.7-12.3 0-17l12.4-12.4c4.7-4.7 12.3-4.7 17 0l28.8 29.2 71.1-71.1c4.7-4.7 12.3-4.7 17 0l12.4 12.4c4.6 4.8 4.6 12.4-.1 17zm0 159.9l-92 92c-4.7 4.7-12.3 4.7-17 0l-12.4-12.4-37.2-37.7c-4.7-4.7-4.7-12.3 0-17l12.4-12.4c4.7-4.7 12.3-4.7 17 0l28.8 29.2 71.1-71.1c4.7-4.7 12.3-4.7 17 0l12.4 12.4c4.6 4.7 4.6 12.3-.1 17zM64 384c-26.5 0-47.6 21.5-47.6 48s21.1 48 47.6 48 48-21.5 48-48-21.5-48-48-48z"/></svg><view id="tasks-alt" viewBox="3704 5492 552 552"/><svg viewBox="-20 -20 552 552" fill="#6f82ab" width="552" height="552" x="3704" y="5492" xmlns="http://www.w3.org/2000/svg"><path d="M488 31H24C10.7 31 0 43 0 58v74c0 15 10.7 27 24 27h464c13.3 0 24-12 24-27V58c0-15-10.7-27-24-27zm-184 80H48V79h256v32zm160 0H352V79h112v32zm24 240H24c-13.3 0-24 12-24 27v74c0 15 10.7 27 24 27h464c13.3 0 24-12 24-27v-74c0-15-10.7-27-24-27zm-248 80H48v-32h192v32zm224 0H288v-32h176v32zm24-240H24c-13.3 0-24 12-24 27v74c0 15 10.7 27 24 27h464c13.3 0 24-12 24-27v-74c0-15-10.7-27-24-27zm-376 80H48v-32h64v32zm352 0H160v-32h304v32z"/></svg><view id="tasks-white" viewBox="4256 5492 552 552"/><svg viewBox="-20 -20 552 552" fill="#fff" width="552" height="552" x="4256" y="5492" xmlns="http://www.w3.org/2000/svg"><path d="M512 128V96c0-6.6-5.4-12-12-12H204c-6.6 0-12 5.5-12 12.2V128c0 6.6 5.4 12 12 12h296c6.6 0 12-5.4 12-12zm0 160v-32c0-6.6-5.4-12-12-12H204c-6.6 0-12 5.4-12 12v32c0 6.6 5.4 12 12 12h296c6.6 0 12-5.4 12-12zm0 160v-32c0-6.6-5.4-12-12-12H204c-6.6 0-12 5.4-12 12v32c0 6.6 5.4 12 12 12h296c6.6 0 12-5.4 12-12zM162.1 64.8l-92 91.8c-4.7 4.7-12.3 4.7-17 0l-12.4-12.4-37.2-37.5c-4.7-4.7-4.7-12.3 0-17l12.4-12.4c4.7-4.7 12.3-4.7 17 0l28.8 29.2 71.1-71.1c4.7-4.7 12.3-4.7 17 0l12.4 12.4c4.6 4.8 4.6 12.4-.1 17zm0 159.9l-92 92c-4.7 4.7-12.3 4.7-17 0l-12.4-12.4-37.2-37.7c-4.7-4.7-4.7-12.3 0-17l12.4-12.4c4.7-4.7 12.3-4.7 17 0l28.8 29.2 71.1-71.1c4.7-4.7 12.3-4.7 17 0l12.4 12.4c4.6 4.7 4.6 12.3-.1 17zM64 384c-26.5 0-47.6 21.5-47.6 48s21.1 48 47.6 48 48-21.5 48-48-21.5-48-48-48z"/></svg><view id="thumbtack" viewBox="4808 5492 424 552"/><svg viewBox="-20 -20 424 552" fill="#fff" width="424" height="552" x="4808" y="5492" xmlns="http://www.w3.org/2000/svg"><path d="M306.5 186.6l-5.7-42.6H328c13.2 0 24-10.8 24-24V24c0-13.2-10.8-24-24-24H56C42.8 0 32 10.8 32 24v96c0 13.2 10.8 24 24 24h27.2l-5.7 42.6C29.6 219.4 0 270.7 0 328c0 13.2 10.8 24 24 24h144v104c0 .9.1 1.7.4 2.5l16 48c2.4 7.3 12.8 7.3 15.2 0l16-48c.3-.8.4-1.7.4-2.5V352h144c13.2 0 24-10.8 24-24 0-57.3-29.6-108.6-77.5-141.4zM50.5 304c8.3-38.5 35.6-70 71.5-87.8L138 96H80V48h224v48h-58l16 120.2c35.8 17.8 63.2 49.4 71.5 87.8z"/></svg><view id="thumbtack-solid" viewBox="5232 5492 424 552"/><svg viewBox="-20 -20 424 552" width="424" height="552" x="5232" y="5492" xmlns="http://www.w3.org/2000/svg"><path d="M298.028 214.267L285.793 96H328c13.255 0 24-10.745 24-24V24c0-13.255-10.745-24-24-24H56C42.745 0 32 10.745 32 24v48c0 13.255 10.745 24 24 24h42.207L85.972 214.267C37.465 236.82 0 277.261 0 328c0 13.255 10.745 24 24 24h136v104.007c0 1.242.289 2.467.845 3.578l24 48c2.941 5.882 11.364 5.893 14.311 0l24-48a8.008 8.008 0 00.845-3.578V352h136c13.255 0 24-10.745 24-24-.001-51.183-37.983-91.42-85.973-113.733z"/></svg><view id="thumbtack-solid-white" viewBox="5656 5492 424 552"/><svg viewBox="-20 -20 424 552" fill="#fff" width="424" height="552" x="5656" y="5492" xmlns="http://www.w3.org/2000/svg"><path d="M298.028 214.267L285.793 96H328c13.255 0 24-10.745 24-24V24c0-13.255-10.745-24-24-24H56C42.745 0 32 10.745 32 24v48c0 13.255 10.745 24 24 24h42.207L85.972 214.267C37.465 236.82 0 277.261 0 328c0 13.255 10.745 24 24 24h136v104.007c0 1.242.289 2.467.845 3.578l24 48c2.941 5.882 11.364 5.893 14.311 0l24-48a8.008 8.008 0 00.845-3.578V352h136c13.255 0 24-10.745 24-24-.001-51.183-37.983-91.42-85.973-113.733z"/></svg><view id="times" viewBox="4864 3864 440 440"/><svg viewBox="-20 -20 440 440" fill="#666" width="440" height="440" x="4864" y="3864" xmlns="http://www.w3.org/2000/svg"><path d="M239.6 200L369.7 69.9c4.7-4.7 4.7-12.3 0-17l-22.6-22.6c-4.7-4.7-12.3-4.7-17 0L200 160.4 69.9 30.3c-4.7-4.7-12.3-4.7-17 0L30.3 52.9c-4.7 4.7-4.7 12.3 0 17L160.4 200 30.3 330.1c-4.7 4.7-4.7 12.3 0 17l22.6 22.6c4.7 4.7 12.3 4.7 17 0L200 239.6l130.1 130.1c4.7 4.7 12.3 4.7 17 0l22.6-22.6c4.7-4.7 4.7-12.3 0-17L239.6 200z"/></svg><view id="times-circle" viewBox="6456 0 552 552"/><svg viewBox="-20 -20 552 552" fill="#c2c2c2" width="552" height="552" x="6456" xmlns="http://www.w3.org/2000/svg"><path d="M256 8C119 8 8 119 8 256s111 248 248 248 248-111 248-248S393 8 256 8zm121.6 313.1c4.7 4.7 4.7 12.3 0 17L338 377.6c-4.7 4.7-12.3 4.7-17 0L256 312l-65.1 65.6c-4.7 4.7-12.3 4.7-17 0L134.4 338c-4.7-4.7-4.7-12.3 0-17l65.6-65-65.6-65.1c-4.7-4.7-4.7-12.3 0-17l39.6-39.6c4.7-4.7 12.3-4.7 17 0l65 65.7 65.1-65.6c4.7-4.7 12.3-4.7 17 0l39.6 39.6c4.7 4.7 4.7 12.3 0 17L312 256l65.6 65.1z"/></svg><view id="times-white" viewBox="508 6044 440 440"/><svg viewBox="-20 -20 440 440" fill="rgba(255,255,255,.6)" width="440" height="440" x="508" y="6044" xmlns="http://www.w3.org/2000/svg"><path d="M239.6 200L369.7 69.9c4.7-4.7 4.7-12.3 0-17l-22.6-22.6c-4.7-4.7-12.3-4.7-17 0L200 160.4 69.9 30.3c-4.7-4.7-12.3-4.7-17 0L30.3 52.9c-4.7 4.7-4.7 12.3 0 17L160.4 200 30.3 330.1c-4.7 4.7-4.7 12.3 0 17l22.6 22.6c4.7 4.7 12.3 4.7 17 0L200 239.6l130.1 130.1c4.7 4.7 12.3 4.7 17 0l22.6-22.6c4.7-4.7 4.7-12.3 0-17L239.6 200z"/></svg><view id="trash" viewBox="6456 552 488 552"/><svg viewBox="-20 -20 488 552" fill="#777" width="488" height="552" x="6456" y="552" xmlns="http://www.w3.org/2000/svg"><path d="M192 188v216c0 6.627-5.373 12-12 12h-24c-6.627 0-12-5.373-12-12V188c0-6.627 5.373-12 12-12h24c6.627 0 12 5.373 12 12zm100-12h-24c-6.627 0-12 5.373-12 12v216c0 6.627 5.373 12 12 12h24c6.627 0 12-5.373 12-12V188c0-6.627-5.373-12-12-12zm132-96c13.255 0 24 10.745 24 24v12c0 6.627-5.373 12-12 12h-20v336c0 26.51-21.49 48-48 48H80c-26.51 0-48-21.49-48-48V128H12c-6.627 0-12-5.373-12-12v-12c0-13.255 10.745-24 24-24h74.411l34.018-56.696A48 48 0 01173.589 0h100.823a48 48 0 0141.16 23.304L349.589 80H424zm-269.611 0h139.223L276.16 50.913A6 6 0 00271.015 48h-94.028a6 6 0 00-5.145 2.913L154.389 80zM368 128H80v330a6 6 0 006 6h276a6 6 0 006-6V128z"/></svg><view id="undo" viewBox="6456 1104 552 552"/><svg viewBox="-20 -20 552 552" fill="#666" width="552" height="552" x="6456" y="1104" xmlns="http://www.w3.org/2000/svg"><path d="M12 8h27.711c6.739 0 12.157 5.548 11.997 12.286l-2.347 98.568C93.925 51.834 170.212 7.73 256.793 8.001 393.18 8.428 504.213 120.009 504 256.396 503.786 393.181 392.835 504 256 504c-63.926 0-122.202-24.187-166.178-63.908-5.113-4.618-5.354-12.561-.482-17.433l19.738-19.738c4.498-4.498 11.753-4.785 16.501-.552C160.213 433.246 205.895 452 256 452c108.322 0 196-87.662 196-196 0-108.322-87.662-196-196-196-79.545 0-147.941 47.282-178.675 115.302l126.389-3.009c6.737-.16 12.286 5.257 12.286 11.997V212c0 6.627-5.373 12-12 12H12c-6.627 0-12-5.373-12-12V20C0 13.373 5.373 8 12 8z"/></svg><view id="upload" viewBox="3336 552 616 552"/><svg viewBox="-20 -20 616 552" width="616" height="552" x="3336" y="552" xmlns="http://www.w3.org/2000/svg"><path d="M528 288H384v-32h64c42.6 0 64.2-51.7 33.9-81.9l-160-160c-18.8-18.8-49.1-18.7-67.9 0l-160 160c-30.1 30.1-8.7 81.9 34 81.9h64v32H48c-26.5 0-48 21.5-48 48v128c0 26.5 21.5 48 48 48h480c26.5 0 48-21.5 48-48V336c0-26.5-21.5-48-48-48zm-400-80L288 48l160 160H336v160h-96V208H128zm400 256H48V336h144v32c0 26.5 21.5 48 48 48h96c26.5 0 48-21.5 48-48v-32h144v128zm-40-64c0 13.3-10.7 24-24 24s-24-10.7-24-24 10.7-24 24-24 24 10.7 24 24z"/></svg><view id="user" viewBox="6456 1656 552 552"/><svg viewBox="-20 -20 552 552" opacity=".5" width="552" height="552" x="6456" y="1656" xmlns="http://www.w3.org/2000/svg"><path d="M384 336c-40.6 0-47.6-1.5-72.2 6.8-17.5 5.9-36.3 9.2-55.8 9.2s-38.3-3.3-55.8-9.2c-24.6-8.3-31.5-6.8-72.2-6.8C57.3 336 0 393.3 0 464v16c0 17.7 14.3 32 32 32h448c17.7 0 32-14.3 32-32v-16c0-70.7-57.3-128-128-128zm80 128H48c0-21.4 8.3-41.5 23.4-56.6C86.5 392.3 106.6 384 128 384c41.1 0 41-1.1 56.8 4.2 23 7.8 47 11.8 71.2 11.8 24.2 0 48.2-4 71.2-11.8 15.8-5.4 15.7-4.2 56.8-4.2 44.1 0 80 35.9 80 80zM256 320c88.4 0 160-71.6 160-160S344.4 0 256 0 96 71.6 96 160s71.6 160 160 160zm0-272c61.8 0 112 50.2 112 112s-50.2 112-112 112-112-50.2-112-112S194.2 48 256 48z"/></svg><view id="user-circle" viewBox="6456 2208 536 552"/><svg viewBox="-20 -20 536 552" fill="#aaa" width="536" height="552" x="6456" y="2208" xmlns="http://www.w3.org/2000/svg"><path d="M248 8C111 8 0 119 0 256s111 248 248 248 248-111 248-248S385 8 248 8zm0 96c48.6 0 88 39.4 88 88s-39.4 88-88 88-88-39.4-88-88 39.4-88 88-88zm0 344c-58.7 0-111.3-26.6-146.5-68.2 18.8-35.4 55.6-59.8 98.5-59.8 2.4 0 4.8.4 7.1 1.1 13 4.2 26.6 6.9 40.9 6.9 14.3 0 28-2.7 40.9-6.9 2.3-.7 4.7-1.1 7.1-1.1 42.9 0 79.7 24.4 98.5 59.8C359.3 421.4 306.7 448 248 448z"/></svg><view id="user-circle-white" viewBox="6456 2760 536 552"/><svg viewBox="-20 -20 536 552" fill="rgba(255,255,255,.6)" width="536" height="552" x="6456" y="2760" xmlns="http://www.w3.org/2000/svg"><path d="M248 8C111 8 0 119 0 256s111 248 248 248 248-111 248-248S385 8 248 8zm0 96c48.6 0 88 39.4 88 88s-39.4 88-88 88-88-39.4-88-88 39.4-88 88-88zm0 344c-58.7 0-111.3-26.6-146.5-68.2 18.8-35.4 55.6-59.8 98.5-59.8 2.4 0 4.8.4 7.1 1.1 13 4.2 26.6 6.9 40.9 6.9 14.3 0 28-2.7 40.9-6.9 2.3-.7 4.7-1.1 7.1-1.1 42.9 0 79.7 24.4 98.5 59.8C359.3 421.4 306.7 448 248 448z"/></svg><view id="user-cog" viewBox="2040 0 680 552"/><svg viewBox="-20 -20 680 552" fill="#666" width="680" height="552" x="2040" xmlns="http://www.w3.org/2000/svg"><path d="M340.3 464H48v-25.6c0-47.6 38.8-86.4 86.4-86.4 14.6 0 38.3 16 89.6 16 42.6 0 70-11.9 80.1-14.4-.1-7.5-.1-24.8 6.1-49.2-28.6 1.4-40.9 15.6-86.2 15.6-47.1 0-60.8-16-89.6-16C60.2 304 0 364.2 0 438.4V464c0 26.5 21.5 48 48 48h342c-19.4-12.9-36.2-29.2-49.7-48zM224 288c79.5 0 144-64.5 144-144S303.5 0 224 0 80 64.5 80 144s64.5 144 144 144zm0-240c52.9 0 96 43.1 96 96s-43.1 96-96 96-96-43.1-96-96 43.1-96 96-96zm386.5 325.3c2.6-14.1 2.6-28.5 0-42.6l25.8-14.9c3-1.7 4.3-5.2 3.3-8.5-6.7-21.6-18.2-41.2-33.2-57.4-2.3-2.5-6-3.1-9-1.4l-25.8 14.9c-10.9-9.3-23.4-16.5-36.9-21.3v-29.8c0-3.4-2.4-6.4-5.7-7.1-22.3-5-45-4.8-66.2 0-3.3.7-5.7 3.7-5.7 7.1v29.8c-13.5 4.8-26 12-36.9 21.3l-25.8-14.9c-2.9-1.7-6.7-1.1-9 1.4-15 16.2-26.5 35.8-33.2 57.4-1 3.3.4 6.8 3.3 8.5l25.8 14.9c-2.6 14.1-2.6 28.5 0 42.6l-25.8 14.9c-3 1.7-4.3 5.2-3.3 8.5 6.7 21.6 18.2 41.1 33.2 57.4 2.3 2.5 6 3.1 9 1.4l25.8-14.9c10.9 9.3 23.4 16.5 36.9 21.3v29.8c0 3.4 2.4 6.4 5.7 7.1 22.3 5 45 4.8 66.2 0 3.3-.7 5.7-3.7 5.7-7.1v-29.8c13.5-4.8 26-12 36.9-21.3l25.8 14.9c2.9 1.7 6.7 1.1 9-1.4 15-16.2 26.5-35.8 33.2-57.4 1-3.3-.4-6.8-3.3-8.5l-25.8-14.9zM496 400.5c-26.8 0-48.5-21.8-48.5-48.5s21.8-48.5 48.5-48.5 48.5 21.8 48.5 48.5-21.7 48.5-48.5 48.5z"/></svg><view id="user-headset" viewBox="6456 3312 488 552"/><svg viewBox="-20 -20 488 552" fill="#777" width="488" height="552" x="6456" y="3312" xmlns="http://www.w3.org/2000/svg"><path d="M320 352h-4.7c-12.15 0-24 2.9-35.5 6.8a173.73 173.73 0 01-111.63 0c-11.49-3.9-23.3-6.78-35.43-6.78H128A128 128 0 000 480a32 32 0 0032 32h384a32 32 0 0032-32 128 128 0 00-128-128zM49.61 464A80.14 80.14 0 01128 400h4.74c5.12 0 11.49 1.35 20 4.24a221.75 221.75 0 00142.42 0c8.6-2.91 15-4.27 20.11-4.27H320a80.14 80.14 0 0178.39 64zm5.72-240a23.36 23.36 0 0023.34-23.33V192c0-80.14 65.19-145.33 145.33-145.33S369.33 111.86 369.33 192v12.67a68.74 68.74 0 01-68.66 68.66h-23.5a38.74 38.74 0 00-37.84-30.66h-30.66a38.67 38.67 0 100 77.33h92A115.46 115.46 0 00416 204.67V192C416 86.13 329.87 0 224 0S32 86.13 32 192v8.67A23.36 23.36 0 0055.33 224zM224 128a64.07 64.07 0 0164 64 63.21 63.21 0 01-8.76 31.73c7 4.86 13.41 10.55 18.29 17.6h3.14c12.69 0 23.35-6.88 29.94-16.71 3.18-10.39 5.39-21.19 5.39-32.62a112 112 0 00-224 0c0 28.2 10.78 53.66 28 73.35a70.73 70.73 0 0128.54-42.05A63.22 63.22 0 01160 192a64.07 64.07 0 0164-64z"/></svg><view id="user-plus" viewBox="2040 552 680 552"/><svg viewBox="-20 -20 680 552" width="680" height="552" x="2040" y="552" xmlns="http://www.w3.org/2000/svg"><path d="M367.598 278.536l-7.622-2.178C369.414 261.154 384 232.031 384 192c0-88.312-71.573-160-160-160-88.312 0-160 71.573-160 160 0 40.06 14.607 69.189 24.025 84.358l-7.622 2.178C19.457 295.949 0 351.374 0 385.127v21.73C0 447.188 32.812 480 73.143 480h301.714C415.188 480 448 447.188 448 406.857v-21.73c0-32.887-18.858-89.007-80.402-106.591zM224 80c61.856 0 112 50.144 112 112s-50.144 112-112 112-112-50.144-112-112S162.144 80 224 80zm176 326.857C400 420.743 388.743 432 374.857 432H73.143C59.257 432 48 420.743 48 406.857v-21.73c0-28.064 18.604-52.729 45.589-60.439l29.583-8.452C163.711 349.212 206.592 352 224 352c17.489 0 60.312-2.807 100.828-35.763l29.583 8.452c26.985 7.71 45.589 32.374 45.589 60.439v21.729zM640 244v24c0 6.627-5.373 12-12 12h-76v76c0 6.627-5.373 12-12 12h-24c-6.627 0-12-5.373-12-12v-76h-76c-6.627 0-12-5.373-12-12v-24c0-6.627 5.373-12 12-12h76v-76c0-6.627 5.373-12 12-12h24c6.627 0 12 5.373 12 12v76h76c6.627 0 12 5.373 12 12z"/></svg><view id="user-plus-red" viewBox="2040 1104 680 552"/><svg viewBox="-20 -20 680 552" fill="#fa345e" width="680" height="552" x="2040" y="1104" xmlns="http://www.w3.org/2000/svg"><path d="M367.598 278.536l-7.622-2.178C369.414 261.154 384 232.031 384 192c0-88.312-71.573-160-160-160-88.312 0-160 71.573-160 160 0 40.06 14.607 69.189 24.025 84.358l-7.622 2.178C19.457 295.949 0 351.374 0 385.127v21.73C0 447.188 32.812 480 73.143 480h301.714C415.188 480 448 447.188 448 406.857v-21.73c0-32.887-18.858-89.007-80.402-106.591zM224 80c61.856 0 112 50.144 112 112s-50.144 112-112 112-112-50.144-112-112S162.144 80 224 80zm176 326.857C400 420.743 388.743 432 374.857 432H73.143C59.257 432 48 420.743 48 406.857v-21.73c0-28.064 18.604-52.729 45.589-60.439l29.583-8.452C163.711 349.212 206.592 352 224 352c17.489 0 60.312-2.807 100.828-35.763l29.583 8.452c26.985 7.71 45.589 32.374 45.589 60.439v21.729zM640 244v24c0 6.627-5.373 12-12 12h-76v76c0 6.627-5.373 12-12 12h-24c-6.627 0-12-5.373-12-12v-76h-76c-6.627 0-12-5.373-12-12v-24c0-6.627 5.373-12 12-12h76v-76c0-6.627 5.373-12 12-12h24c6.627 0 12 5.373 12 12v76h76c6.627 0 12 5.373 12 12z"/></svg><view id="user-solid" viewBox="6456 3864 488 552"/><svg viewBox="-20 -20 488 552" width="488" height="552" x="6456" y="3864" xmlns="http://www.w3.org/2000/svg"><path d="M224 256c70.7 0 128-57.3 128-128S294.7 0 224 0 96 57.3 96 128s57.3 128 128 128zm89.6 32h-16.7c-22.2 10.2-46.9 16-72.9 16s-50.6-5.8-72.9-16h-16.7C60.2 288 0 348.2 0 422.4V464c0 26.5 21.5 48 48 48h352c26.5 0 48-21.5 48-48v-41.6c0-74.2-60.2-134.4-134.4-134.4z"/></svg><view id="user-times" viewBox="0 1656 680 552"/><svg viewBox="-20 -20 680 552" width="680" height="552" y="1656" xmlns="http://www.w3.org/2000/svg"><path d="M631.681 326.711l-16.971 16.971c-4.686 4.686-12.284 4.686-16.971 0L544 289.941l-53.74 53.74c-4.686 4.686-12.284 4.686-16.971 0l-16.971-16.971c-4.686-4.686-4.686-12.284 0-16.971l53.74-53.74-53.74-53.74c-4.686-4.686-4.686-12.284 0-16.971l16.971-16.971c4.686-4.686 12.284-4.686 16.971 0l53.74 53.74 53.74-53.74c4.686-4.686 12.284-4.686 16.971 0l16.971 16.971c4.686 4.686 4.686 12.284 0 16.971L577.941 256l53.74 53.74c4.687 4.686 4.687 12.284 0 16.971zm-264.083-48.175l-7.622-2.178C369.414 261.154 384 232.031 384 192c0-88.312-71.573-160-160-160-88.312 0-160 71.573-160 160 0 40.06 14.607 69.189 24.025 84.358l-7.622 2.178C19.457 295.949 0 351.374 0 385.127v21.73C0 447.188 32.812 480 73.143 480h301.714C415.188 480 448 447.188 448 406.857v-21.73c0-32.887-18.858-89.007-80.402-106.591zM224 80c61.856 0 112 50.144 112 112s-50.144 112-112 112-112-50.144-112-112S162.144 80 224 80zm176 326.857C400 420.743 388.743 432 374.857 432H73.143C59.257 432 48 420.743 48 406.857v-21.73c0-28.064 18.604-52.729 45.589-60.439l29.583-8.452C163.711 349.212 206.592 352 224 352c17.489 0 60.312-2.807 100.828-35.763l29.583 8.452c26.985 7.71 45.589 32.374 45.589 60.439v21.729z"/></svg><view id="users" viewBox="680 1656 680 552"/><svg viewBox="-20 -20 680 552" width="680" height="552" x="680" y="1656" xmlns="http://www.w3.org/2000/svg"><path d="M480 256c53 0 96-43 96-96s-43-96-96-96-96 43-96 96 43 96 96 96zm0-144c26.5 0 48 21.5 48 48s-21.5 48-48 48-48-21.5-48-48 21.5-48 48-48zM272.1 276c-11.9 0-23.9 1.7-35.5 5.3-14.2 4.3-29.1 6.7-44.7 6.7s-30.5-2.4-44.7-6.7c-11.6-3.5-23.6-5.3-35.5-5.3-36.3 0-71.6 16.2-92.3 46.9C7.2 341.3 0 363.4 0 387.2V432c0 26.5 21.5 48 48 48h288c26.5 0 48-21.5 48-48v-44.8c0-23.8-7.2-45.9-19.6-64.3-20.7-30.7-56-46.9-92.3-46.9zM336 432H48v-44.8c0-28.9 18.4-53.6 44.1-63.1 10.3-3.8 21.6-3.7 31.9 0 22.1 7.9 45 11.9 68 11.9s45.8-4 68.1-11.9c10.3-3.7 21.6-3.8 31.9 0 25.7 9.4 44.1 34.2 44.1 63.1V432zM192 256c61.9 0 112-50.1 112-112S253.9 32 192 32 80 82.1 80 144s50.1 112 112 112zm0-176c35.3 0 64 28.7 64 64s-28.7 64-64 64-64-28.7-64-64 28.7-64 64-64zm431.7 237.1C606.4 291.5 577 278 546.8 278c-27.8 0-34.8 10-66.8 10s-39-10-66.8-10c-13.3 0-26.2 3-38.2 8.1 5.8 5.9 11.3 12 16 18.9 4.7 7 8.6 14.4 12 22 3.3-.7 6.7-1.1 10.2-1.1 17.2 0 29.6 10 66.8 10 37.4 0 49.5-10 66.8-10 15.7 0 29.5 6.7 37.1 17.9 5.3 7.9 8.1 17.1 8.1 26.7V400H416v32c0 5.5-.6 10.8-1.6 16H600c22.1 0 40-17.9 40-40v-37.3c0-19.9-6-38.3-16.3-53.6z"/></svg><view id="users-check" viewBox="6456 5496 537 438"/><svg viewBox="-20 -20 537 438" fill="#6f82ab" width="537" height="438" x="6456" y="5496" xmlns="http://www.w3.org/2000/svg"><path d="M173.727 223.364c61.658 0 111.682-50.025 111.682-111.682C285.41 50.024 235.385 0 173.727 0 112.07 0 62.045 50.024 62.045 111.682c0 61.657 50.025 111.682 111.682 111.682zm0-186.137c41.028 0 74.455 33.427 74.455 74.455 0 41.027-33.427 74.454-74.455 74.454-41.027 0-74.454-33.427-74.454-74.454 0-41.028 33.427-74.455 74.454-74.455zm69.491 198.546c-22.336 0-32.884 12.409-69.49 12.409-36.53 0-47.155-12.41-69.492-12.41C46.69 235.773 0 282.463 0 340.01v19.855c0 20.552 16.675 37.227 37.227 37.227h273c20.553 0 37.228-16.675 37.228-37.227v-19.855c0-57.547-46.69-104.236-104.237-104.236zm67.01 124.09h-273V340.01c0-36.917 30.091-67.009 67.008-67.009 11.324 0 29.705 12.41 69.491 12.41 40.097 0 58.09-12.41 69.491-12.41 36.917 0 67.01 30.092 67.01 67.01v19.854zM494.037 124.944l-14.813-14.89c-3.103-3.18-8.221-3.18-11.324 0l-79.96 80.426-36.763-36.995c-3.102-3.18-8.22-3.18-11.323 0l-14.89 14.89a8.146 8.146 0 000 11.402L382.2 237.4c3.102 3.18 8.221 3.18 11.323 0l100.514-101.056c3.102-3.102 3.102-8.221 0-11.401z"/></svg><view id="users-clock" viewBox="3336 2304 565 460"/><svg viewBox="-20 -20 565 460" fill="#6f82ab" width="565" height="460" x="3336" y="2304" xmlns="http://www.w3.org/2000/svg"><path d="M183.75 235.25c65.215 0 118.125-52.91 118.125-118.125S248.965-1 183.75-1 65.625 51.91 65.625 117.125 118.535 235.25 183.75 235.25zm0-196.875c43.395 0 78.75 35.355 78.75 78.75s-35.355 78.75-78.75 78.75S105 160.52 105 117.125s35.355-78.75 78.75-78.75zM39.375 379.625v-21c0-39.047 31.828-70.875 70.875-70.875 11.977 0 31.418 13.125 73.5 13.125 35.273 0 57.75-9.926 66.2-11.977 1.066-14.027 4.019-27.562 8.53-40.359-25.757-.328-35.355 12.961-74.73 12.961-38.637 0-49.875-13.125-73.5-13.125C49.383 248.375 0 297.758 0 358.625v21C0 401.363 17.637 419 39.375 419h263.648c-12.796-11.238-23.789-24.527-32.402-39.375H39.375zm367.5-196.875c-65.297 0-118.125 52.828-118.125 118.125S341.578 419 406.875 419 525 366.172 525 300.875 472.172 182.75 406.875 182.75zm52.5 123.293c0 4.348-3.61 7.957-7.957 7.957h-49.711c-4.348 0-7.957-3.61-7.957-7.957v-62.836c0-4.348 3.61-7.957 7.957-7.957h10.336c4.348 0 7.957 3.61 7.957 7.957v44.543h31.418c4.348 0 7.957 3.61 7.957 7.957v10.336z"/></svg><view id="users-clock-white" viewBox="0 2824 565 460"/><svg viewBox="-20 -20 565 460" fill="#fff" width="565" height="460" y="2824" xmlns="http://www.w3.org/2000/svg"><path d="M183.75 235.25c65.215 0 118.125-52.91 118.125-118.125S248.965-1 183.75-1 65.625 51.91 65.625 117.125 118.535 235.25 183.75 235.25zm0-196.875c43.395 0 78.75 35.355 78.75 78.75s-35.355 78.75-78.75 78.75S105 160.52 105 117.125s35.355-78.75 78.75-78.75zM39.375 379.625v-21c0-39.047 31.828-70.875 70.875-70.875 11.977 0 31.418 13.125 73.5 13.125 35.273 0 57.75-9.926 66.2-11.977 1.066-14.027 4.019-27.562 8.53-40.359-25.757-.328-35.355 12.961-74.73 12.961-38.637 0-49.875-13.125-73.5-13.125C49.383 248.375 0 297.758 0 358.625v21C0 401.363 17.637 419 39.375 419h263.648c-12.796-11.238-23.789-24.527-32.402-39.375H39.375zm367.5-196.875c-65.297 0-118.125 52.828-118.125 118.125S341.578 419 406.875 419 525 366.172 525 300.875 472.172 182.75 406.875 182.75zm52.5 123.293c0 4.348-3.61 7.957-7.957 7.957h-49.711c-4.348 0-7.957-3.61-7.957-7.957v-62.836c0-4.348 3.61-7.957 7.957-7.957h10.336c4.348 0 7.957 3.61 7.957 7.957v44.543h31.418c4.348 0 7.957 3.61 7.957 7.957v10.336z"/></svg><view id="users-duotone" viewBox="1360 1656 680 552"/><svg viewBox="-20 -20 680 552" fill="#fff" width="680" height="552" x="1360" y="1656" xmlns="http://www.w3.org/2000/svg"><defs><style>.fafa-secondary{opacity:.4}</style></defs><path d="M96 224a64 64 0 10-64-64 64.06 64.06 0 0064 64zm480 32h-64a63.81 63.81 0 00-45.1 18.6A146.27 146.27 0 01542 384h66a32 32 0 0032-32v-32a64.06 64.06 0 00-64-64zm-512 0a64.06 64.06 0 00-64 64v32a32 32 0 0032 32h65.9a146.64 146.64 0 0175.2-109.4A63.81 63.81 0 00128 256zm480-32a64 64 0 10-64-64 64.06 64.06 0 0064 64z" class="fafa-secondary"/><path d="M396.8 288h-8.3a157.53 157.53 0 01-68.5 16c-24.6 0-47.6-6-68.5-16h-8.3A115.23 115.23 0 00128 403.2V432a48 48 0 0048 48h288a48 48 0 0048-48v-28.8A115.23 115.23 0 00396.8 288zM320 256a112 112 0 10-112-112 111.94 111.94 0 00112 112z" class="fafa-primary"/></svg><view id="users-solid" viewBox="2040 1656 680 552"/><svg viewBox="-20 -20 680 552" width="680" height="552" x="2040" y="1656" xmlns="http://www.w3.org/2000/svg"><path d="M96 224c35.3 0 64-28.7 64-64s-28.7-64-64-64-64 28.7-64 64 28.7 64 64 64zm448 0c35.3 0 64-28.7 64-64s-28.7-64-64-64-64 28.7-64 64 28.7 64 64 64zm32 32h-64c-17.6 0-33.5 7.1-45.1 18.6 40.3 22.1 68.9 62 75.1 109.4h66c17.7 0 32-14.3 32-32v-32c0-35.3-28.7-64-64-64zm-256 0c61.9 0 112-50.1 112-112S381.9 32 320 32 208 82.1 208 144s50.1 112 112 112zm76.8 32h-8.3c-20.8 10-43.9 16-68.5 16s-47.6-6-68.5-16h-8.3C179.6 288 128 339.6 128 403.2V432c0 26.5 21.5 48 48 48h288c26.5 0 48-21.5 48-48v-28.8c0-63.6-51.6-115.2-115.2-115.2zm-223.7-13.4C161.5 263.1 145.6 256 128 256H64c-35.3 0-64 28.7-64 64v32c0 17.7 14.3 32 32 32h65.9c6.3-47.4 34.9-87.3 75.2-109.4z"/></svg></svg>