<svg xmlns="http://www.w3.org/2000/svg" viewBox="0 0 525 420" fill="#6f82ab"><path d="M183.75,235.25 C248.964844,235.25 301.875,182.339844 301.875,117.125 C301.875,51.9101562 248.964844,-1 183.75,-1 C118.535156,-1 65.625,51.9101562 65.625,117.125 C65.625,182.339844 118.535156,235.25 183.75,235.25 Z M183.75,38.375 C227.144531,38.375 262.5,73.7304688 262.5,117.125 C262.5,160.519531 227.144531,195.875 183.75,195.875 C140.355469,195.875 105,160.519531 105,117.125 C105,73.7304688 140.355469,38.375 183.75,38.375 Z M39.375,379.625 L39.375,358.625 C39.375,319.578125 71.203125,287.75 110.25,287.75 C122.226563,287.75 141.667969,300.875 183.75,300.875 C219.023438,300.875 241.5,290.949219 249.949219,288.898437 C251.015625,274.871094 253.96875,261.335937 258.480469,248.539062 C232.722656,248.210937 223.125,261.5 183.75,261.5 C145.113281,261.5 133.875,248.375 110.25,248.375 C49.3828125,248.375 0,297.757812 0,358.625 L0,379.625 C0,401.363281 17.6367188,419 39.375,419 L303.023438,419 C290.226563,407.761719 279.234375,394.472656 270.621094,379.625 L39.375,379.625 Z M406.875,182.75 C341.578125,182.75 288.75,235.578125 288.75,300.875 C288.75,366.171875 341.578125,419 406.875,419 C472.171875,419 525,366.171875 525,300.875 C525,235.578125 472.171875,182.75 406.875,182.75 Z M459.375,306.042969 C459.375,310.390625 455.765625,314 451.417969,314 L401.707031,314 C397.359375,314 393.75,310.390625 393.75,306.042969 L393.75,243.207031 C393.75,238.859375 397.359375,235.25 401.707031,235.25 L412.042969,235.25 C416.390625,235.25 420,238.859375 420,243.207031 L420,287.75 L451.417969,287.75 C455.765625,287.75 459.375,291.359375 459.375,295.707031 L459.375,306.042969 Z" /></svg>
